<?xml version="1.0" standalone="no"?><!DOCTYPE svg PUBLIC "-//W3C//DTD SVG 1.1//EN" "http://www.w3.org/Graphics/SVG/1.1/DTD/svg11.dtd">
<svg t="1706003984809"
     class="icon"
     viewBox="0 0 1024 1024"
     version="1.1"
     xmlns="http://www.w3.org/2000/svg"
     p-id="2295"
     xmlns:xlink="http://www.w3.org/1999/xlink"
     width="96"
     height="96"
     fill="currentColor">
    <path
        d="M512 0C229.229877 0 0 229.229877 0 512S229.229877 1024 512 1024 1024 794.770123 1024 512 794.770123 0 512 0zM820.798216 512a50.37806 50.37806 0 0 1-50.229654 50.229654H562.229654V770.568562a50.37806 50.37806 0 0 1-50.229654 50.229654 50.37806 50.37806 0 0 1-50.229654-50.229654V562.229654H253.431438a50.37806 50.37806 0 0 1-50.229654-50.229654 50.37806 50.37806 0 0 1 50.229654-50.229654h208.338908V253.431438a50.37806 50.37806 0 0 1 50.229654-50.229654 50.37806 50.37806 0 0 1 50.229654 50.229654v208.338908H770.568562a50.37806 50.37806 0 0 1 50.229654 50.229654z"
        p-id="2296"
        fill="#cccccc"></path>
</svg>