<?xml version="1.0" standalone="no"?><!DOCTYPE svg PUBLIC "-//W3C//DTD SVG 1.1//EN" "http://www.w3.org/Graphics/SVG/1.1/DTD/svg11.dtd">
<svg t="1704459730471"
     class="icon"
     viewBox="0 0 1024 1024"
     version="1.1"
     xmlns="http://www.w3.org/2000/svg"
     p-id="7033"
     xmlns:xlink="http://www.w3.org/1999/xlink"
     width="96"
     height="96"
     fill="currentColor">
    <path
        d="M522.24 104.448q2.048 0 5.12-2.048 6.144-4.096 16.384-14.336 12.288-11.264 24.576-16.384t32.768 3.072q10.24 3.072 16.384 8.704t11.776 10.752 12.288 8.704 16.896 3.584 17.408-3.072 13.824-5.632 13.312-3.584 15.872 2.048q10.24 4.096 13.824 11.776t2.048 15.872-7.168 16.384-13.824 13.312q-19.456 12.288-29.696 25.088t-20.48 27.136q-5.12 7.168-11.264 16.384t-11.264 18.432q-6.144 11.264-13.312 21.504l-211.968 0q-7.168-12.288-14.336-23.552-6.144-10.24-13.312-20.48t-12.288-18.432q-10.24-15.36-23.04-27.136t-25.088-20.992q-13.312-9.216-18.432-25.088t9.216-27.136q7.168-5.12 16.384-4.096t19.456 4.096 19.968 6.144 17.92 1.024q14.336-3.072 21.504-10.752t24.576-18.944q13.312-8.192 29.696-5.632t24.576 10.752q4.096 5.12 8.704 8.704t9.728 6.656q5.12 4.096 11.264 7.168zM637.952 309.248q12.288 16.384 30.72 35.84 15.36 17.408 37.888 39.424t52.224 46.592q24.576 21.504 50.688 50.688t45.568 68.096 27.136 89.6-2.56 113.152q-9.216 51.2-36.352 96.768t-72.192 79.36-107.008 53.76-140.8 19.968q-80.896 0-143.36-23.04t-105.984-59.904-69.12-82.432-33.792-90.624q-9.216-50.176-2.56-96.256t24.064-86.528 43.52-74.24 56.832-60.416q26.624-23.552 48.128-44.544t35.84-38.4q17.408-19.456 30.72-36.864l230.4 0zM529.408 623.616l-27.648-27.648-21.504-21.504q-10.24-10.24-14.336-15.36-8.192-7.168-21.504-11.776t-22.528 5.632q-8.192 11.264-4.096 22.016t9.216 16.896l15.36 14.336q11.264 12.288 24.576 26.624 15.36 16.384 33.792 34.816l-1.024 21.504-69.632 0q-9.216 0-15.872 7.168t-6.656 15.36 6.144 14.336 16.384 6.144l69.632 0 0 35.84-69.632 0q-9.216 0-15.872 5.632t-6.656 14.848q-1.024 8.192 5.632 13.824t16.896 5.632l69.632 0 0 20.48q1.024 14.336 9.216 19.968t20.48 5.632q12.288 1.024 19.968-7.68t7.68-17.92l0-20.48 71.68 0q10.24 0 16.896-4.608t5.632-14.848q0-21.504-28.672-21.504l-65.536 0 1.024-34.816 66.56-1.024q14.336 1.024 20.48-5.632t6.144-15.872q0-8.192-6.656-14.848t-20.992-6.656l-66.56 0 0-19.456q17.408-16.384 31.744-31.744 12.288-12.288 24.576-25.088t18.432-17.92q23.552-20.48 10.24-35.84-7.168-9.216-18.432-9.216t-20.48 8.192q-5.12 4.096-17.408 14.848t-24.576 22.016q-14.336 13.312-31.744 29.696z"
        p-id="7034"
        fill="#cccccc"></path>
</svg>