<?xml version="1.0" standalone="no"?><!DOCTYPE svg PUBLIC "-//W3C//DTD SVG 1.1//EN" "http://www.w3.org/Graphics/SVG/1.1/DTD/svg11.dtd">
<svg t="1705903724543"
     class="icon"
     viewBox="0 0 1026 1024"
     version="1.1"
     xmlns="http://www.w3.org/2000/svg"
     p-id="4634"
     xmlns:xlink="http://www.w3.org/1999/xlink"
     width="96.1875"
     height="96"
     fill="currentColor">
    <path
        d="M1019.109859 384c-11.286261-32.01113-39.713391-55.05113-74.195478-60.126609L701.69212 288.233739l-105.627826-216.019478c-15.270957-31.276522-48.261565-51.489391-84.057043-51.489391-35.706435 0-68.652522 20.21287-83.968 51.489391l-105.672348 216.041739L79.166902 323.940174c-34.504348 4.964174-62.953739 27.981913-74.24 60.17113-11.264 32.50087-2.871652 67.806609 21.882435 92.137739l178.509913 175.638261-41.405217 243.378087c-5.810087 33.925565 9.282783 68.719304 38.555826 88.687304 28.627478 19.255652 67.005217 21.370435 97.836522 5.164522l211.745391-112.39513 211.878957 112.417391c13.712696 7.234783 29.094957 11.063652 44.521739 11.063652 19.010783 0 37.420522-5.609739 53.337043-16.317217 29.139478-19.878957 44.210087-54.650435 38.4-88.576l-41.382957-243.400348 178.532174-175.638261C1022.048294 451.917913 1030.440641 416.589913 1019.109859 384zM966.062207 444.527304l-195.094261 191.955478 45.278609 266.329043c2.938435 17.096348-4.585739 34.05913-19.478261 44.232348-15.248696 10.24-35.817739 11.330783-52.045913 2.782609L512.00725 826.323478l-232.537043 123.436522c-16.406261 8.637217-36.997565 7.479652-52.045913-2.671304-15.048348-10.262261-22.572522-27.247304-19.634087-44.343652l45.30087-266.284522-195.072-191.955478c-12.377043-12.154435-16.606609-29.718261-11.063652-45.723826 5.765565-16.384 20.524522-28.182261 38.622609-30.786783l266.48487-39.112348 115.97913-237.122783c7.880348-16.11687 25.154783-26.534957 43.987478-26.534957 18.899478 0 36.173913 10.395826 44.054261 26.512696l115.95687 237.122783 266.418087 39.023304c18.075826 2.671304 32.901565 14.514087 38.64487 30.809043C982.668815 414.786783 978.43925 432.328348 966.062207 444.527304zM509.046555 376.898783c-45.590261 0-82.320696 13.913043-109.122783 41.316174-44.744348 45.746087-43.78713 112.194783-43.720348 115.021913 0.26713 12.109913 10.173217 21.726609 22.238609 21.726609 0.133565 0 0.289391 0 0.422957 0 12.265739-0.222609 22.016-10.373565 21.837913-22.639304 0-0.512-0.400696-51.066435 31.254261-83.18887 18.098087-18.387478 44.054261-27.692522 77.06713-27.692522 12.288 0 22.26087-9.97287 22.26087-22.26087S521.334555 376.898783 509.046555 376.898783z"
        fill="#cccccc"
        p-id="4635"></path>
</svg>