<?xml version="1.0" standalone="no"?><!DOCTYPE svg PUBLIC "-//W3C//DTD SVG 1.1//EN" "http://www.w3.org/Graphics/SVG/1.1/DTD/svg11.dtd">
<svg t="1705839502488"
     class="icon"
     viewBox="0 0 1024 1024"
     version="1.1"
     xmlns="http://www.w3.org/2000/svg"
     p-id="4322"
     xmlns:xlink="http://www.w3.org/1999/xlink"
     width="96"
     height="96"
     fill="currentColor">
    <path
        d="M523.636364 954.181818c-79.476364 0-158.114909-18.269091-228.305455-52.852363l-136.866909 28.811636a34.885818 34.885818 0 0 1-41.355636-41.332364l23.016727-109.358545C78.824727 704.907636 46.545455 616.843636 46.545455 523.636364 46.545455 286.208 260.561455 93.090909 523.636364 93.090909 786.688 93.090909 1000.727273 286.208 1000.727273 523.636364 1000.727273 761.041455 786.688 954.181818 523.636364 954.181818z m-223.441455-124.462545c5.608727 0 11.194182 1.373091 16.244364 4.002909C379.438545 866.862545 451.095273 884.363636 523.636364 884.363636 748.194909 884.363636 930.909091 722.548364 930.909091 523.636364S748.194909 162.909091 523.636364 162.909091C299.054545 162.909091 116.363636 324.724364 116.363636 523.636364c0 81.547636 30.254545 158.626909 87.528728 222.976 7.377455 8.261818 10.402909 19.549091 8.098909 30.370909l-15.546182 73.821091 96.535273-20.340364c2.397091-0.488727 4.794182-0.744727 7.214545-0.744727z m37.236364-306.082909a46.545455 46.545455 0 1 1-93.090909-0.046546 46.545455 46.545455 0 0 1 93.090909 0.046546z m232.727272 0a46.545455 46.545455 0 1 1-93.090909-0.046546 46.545455 46.545455 0 0 1 93.090909 0.046546z m232.727273 0a46.545455 46.545455 0 1 1-93.090909-0.046546 46.545455 46.545455 0 0 1 93.090909 0.046546z"
        fill="#cccccc"
        p-id="4323"></path>
</svg>