<?xml version="1.0" standalone="no"?><!DOCTYPE svg PUBLIC "-//W3C//DTD SVG 1.1//EN" "http://www.w3.org/Graphics/SVG/1.1/DTD/svg11.dtd">
<svg t="1704457701090"
     class="icon"
     viewBox="0 0 1535 1024"
     version="1.1"
     xmlns="http://www.w3.org/2000/svg"
     p-id="14497"
     xmlns:xlink="http://www.w3.org/1999/xlink"
     width="143.90625"
     height="96"
     fill="currentColor">
    <path
        d="M397.317157 843.332036h670.926863a10.255236 10.255236 0 0 1 0 20.510473H397.317157a10.255236 10.255236 0 0 1 0-20.510473z m-220.048072 61.59002h303.203388a10.284537 10.284537 0 1 1 0 20.569074H177.269085a10.284537 10.284537 0 0 1 0-20.569074z m413.842738 0h754.902598a10.284537 10.284537 0 1 1 0 20.569074H591.111823a10.284537 10.284537 0 0 1 0-20.569074z m-511.355385 0h44.537027a10.284537 10.284537 0 0 1 0 20.569074h-44.537027a10.284537 10.284537 0 0 1 0-20.569074z m1024.703216-61.59002h30.238297a10.255236 10.255236 0 0 1 0 20.510473h-30.238297a10.255236 10.255236 0 0 1 0-20.510473z m303.789402 61.59002h54.440654a10.284537 10.284537 0 0 1 0 20.569074h-54.440654a10.284537 10.284537 0 0 1 0-20.569074z m-335.199726 98.567471h110.756553a10.255236 10.255236 0 0 1 0 20.510473h-110.756553a10.255236 10.255236 0 1 1 0-20.510473z m-47.174087 0h15.998169a10.255236 10.255236 0 0 1 0 20.510473h-15.998169a10.255236 10.255236 0 0 1 0-20.510473z m-403.353096 0h174.983633a10.255236 10.255236 0 0 1 0 20.510473h-174.983633a10.255236 10.255236 0 0 1 0-20.510473z m262.768456 0h110.756553a10.255236 10.255236 0 1 1 0 20.510473h-110.756553a10.255236 10.255236 0 0 1 0-20.510473zM329.222388 843.332036h30.238296a10.255236 10.255236 0 0 1 0 20.510473h-30.238296a10.255236 10.255236 0 1 1 0-20.510473z m199.010186 61.59002h24.026554a10.284537 10.284537 0 0 1 0 20.569074h-24.026554a10.284537 10.284537 0 0 1 0-20.569074z m36.45004-332.621266V389.230171c0-26.429209 16.584182-47.056885 41.724162-50.865973a117.917638 117.917638 0 0 1 25.315783-0.293007 15.910267 15.910267 0 0 1 13.41971 17.111595 16.226714 16.226714 0 0 1-15.17775 15.939567c-5.332723 0.175804-10.665446 0-16.05677 0.058602a16.625203 16.625203 0 0 0-17.052993 17.990614v366.19984a16.560742 16.560742 0 0 0 17.345999 18.049216h319.904773a16.672084 16.672084 0 0 0 17.521804-18.63523V654.049674l0.058601-263.35447a20.873801 20.873801 0 0 0-3.340277-12.775094 15.775484 15.775484 0 0 0-12.716493-6.680554c-5.332723-0.117203-10.724047 0-16.05677 0a16.519721 16.519721 0 0 1-16.408378-16.525581 16.92407 16.92407 0 0 1 4.629507-11.954675 15.746183 15.746183 0 0 1 11.427263-4.922514 138.937942 138.937942 0 0 1 27.542635 1.582237 48.814925 48.814925 0 0 1 37.036054 46.822479l0.058601 3.867689v364.441799a49.91663 49.91663 0 0 1-28.538858 47.818702 43.364999 43.364999 0 0 1-20.100263 4.512304h-321.897219a47.220968 47.220968 0 0 1-34.633398-14.708939 51.229301 51.229301 0 0 1-14.005723-36.098432V572.30079z m209.675633-167.599863h-62.87925c-20.39327 0-33.871581-14.122925-33.930182-35.278013 0-10.196635-0.058601-20.39327 0-30.648506a32.55891 32.55891 0 0 1 33.226966-34.457594h127.047728a32.599931 32.599931 0 0 1 33.109763 34.340391c0.058601 10.724047 0.058601 21.506696 0 32.289344a33.8247 33.8247 0 0 1-9.083209 23.733547 31.146618 31.146618 0 0 1-22.678723 9.96223c-21.565297 0.234405-43.189195 0-64.813093 0.058601z m64.22708-66.688337h-128.571363v33.051162h128.571363v-33.051162zM116.968296 277.594598a56.198695 56.198695 0 1 1 56.140094-56.198696 56.198695 56.198695 0 0 1-56.140094 56.198696z m0.175804-25.725993a30.296898 30.296898 0 1 0-30.296898-30.296898 30.314479 30.314479 0 0 0 30.296898 30.296898z m535.206135-206.276754a5.303422 5.303422 0 1 1 0 10.606844h-40.200527v40.259128a5.303422 5.303422 0 1 1-10.606844 0V56.198695h-40.259128a5.303422 5.303422 0 0 1 0-10.606844h40.259128V5.274122a5.274122 5.274122 0 1 1 10.548243 0v40.317729h40.259128zM88.136431 502.799588a3.838388 3.838388 0 0 1-0.058601 7.676777H50.104155v38.20808a3.850109 3.850109 0 0 1-3.809088 3.86769 3.90285 3.90285 0 0 1-3.867689-3.86769V510.476365l-38.61829-0.058601a3.803228 3.803228 0 0 1-3.809088-3.809088 3.90285 3.90285 0 0 1 3.867689-3.867689l38.559689 0.058601v-38.208081a3.850109 3.850109 0 0 1 3.867689-3.809087 3.803228 3.803228 0 0 1 3.809088 3.809087v38.208081h38.032276z m1404.908779-193.443058a1.816642 1.816642 0 0 1 0.410209 1.699439 1.758041 1.758041 0 0 1-1.230628 1.230628 1.711159 1.711159 0 0 1-1.699439-0.468811l-17.404601-17.404601-17.404601 17.404601a1.758041 1.758041 0 0 1-2.461257-2.461256l17.404601-17.404601-17.404601-17.404602a1.758041 1.758041 0 0 1 0-2.519858 1.699439 1.699439 0 0 1 2.461257 0l17.404601 17.404602 17.404601-17.404602a1.851803 1.851803 0 0 1 1.699439-0.46881 1.758041 1.758041 0 0 1 1.230628 1.230628 1.892824 1.892824 0 0 1-0.410209 1.75804l-17.404601 17.404602zM1125.731945 400.364427c-4.512304-4.453703-8.966007-8.966007-13.41971-13.361108-0.527412-0.527412-0.468811-0.761818 0-1.230628 1.113426-1.054824 2.109649-2.109649 3.223075-3.223074l0.527412 0.527412 13.595513 13.536912c0.410209 0.468811 0.410209 0.703216-0.058601 1.113425-1.054824 1.054824-2.109649 2.109649-3.223075 3.281676a6.621953 6.621953 0 0 1-0.644614-0.644615z m33.754378 25.843196l14.064324 14.122925a0.404349 0.404349 0 0 1 0.175804 0.234406c-1.230628 1.172027-2.402655 2.344054-3.574683 3.457479a0.691496 0.691496 0 0 1-0.703216-0.175804l-5.860135-5.860135-7.676777-7.676777-0.527412-0.586013c0.058601-0.117203 0.175804-0.234405 0.234405-0.351608l3.105872-3.105872c0.293007-0.293007 0.468811-0.351608 0.761818-0.058601z m-1.054825-26.019c-0.87902-0.937622-1.875243-1.875243-2.812865-2.812865-0.234405-0.293007-0.351608-0.468811-0.058601-0.761817l13.829919-13.88852a1.927984 1.927984 0 0 0 0.351608-0.175804c1.172027 1.172027 2.285453 2.285453 3.398878 3.457479a0.785258 0.785258 0 0 1 0.058602 0.527412 1.382992 1.382992 0 0 1-0.293007 0.293007l-13.361108 13.361108c-0.468811 0.468811-0.703216 0.468811-1.113426 0z m-31.70333 26.136202c0.87902 0.996223 1.875243 1.933845 2.812864 2.871467a0.43951 0.43951 0 0 1 0.058602 0.761817l-13.829919 13.829919a3.592263 3.592263 0 0 0-0.351608 0.234405c-1.172027-1.172027-2.285453-2.344054-3.398878-3.516081a0.44537 0.44537 0 0 1 0-0.468811 0.386769 0.386769 0 0 1 0.234405-0.293006c4.453703-4.453703 8.907405-8.907405 13.361108-13.41971 0.468811-0.410209 0.703216-0.410209 1.113426 0z m16.642783-43.247796c0 2.812865-0.058601 5.567128 0 8.379993 0 0.644615-0.175804 0.820419-0.820419 0.761817h-3.92629c-0.410209 0-0.644615-0.058601-0.644615-0.586013v-17.170196a0.544993 0.544993 0 0 1 0.644615-0.644615q2.021747 0.087902 4.043493 0a0.586014 0.586014 0 0 1 0.703216 0.703217c-0.058601 2.871466 0 5.684331 0 8.555797z m-21.741101 26.312006c-0.058601 1.28923-0.058601 2.637061 0 3.984892 0 0.468811-0.175804 0.586014-0.644615 0.586013h-17.170196c-0.468811 0-0.586014-0.175804-0.586013-0.644614q0.087902-2.021747 0-4.043494a0.544993 0.544993 0 0 1 0.644615-0.644614h16.994392c0.586014 0 0.761818 0.117203 0.761817 0.761817z m60.828202-0.058601q-0.087902 2.021747 0 4.043493a0.486391 0.486391 0 0 1-0.586014 0.586013h-17.170195a0.527412 0.527412 0 0 1-0.644615-0.644614c0.058601-1.347831 0.058601-2.695662 0-3.984892a0.586014 0.586014 0 0 1 0.703216-0.703216h16.93579c0.527412 0 0.761818 0.117203 0.761818 0.703216z m-39.087101 34.516195c0 2.871466-0.058601 5.684331 0 8.555797a0.586014 0.586014 0 0 1-0.703216 0.703217 47.877303 47.877303 0 0 0-4.102095 0 0.503972 0.503972 0 0 1-0.586013-0.586014v-17.170196a0.544993 0.544993 0 0 1 0.644615-0.644614c1.347831 0 2.695662 0.058601 4.043493 0a0.586014 0.586014 0 0 1 0.703216 0.703216c-0.058601 2.812865 0 5.62573 0 8.438594z m358.230056 101.321735a33.490672 33.490672 0 1 1 33.461371-33.461371 33.502392 33.502392 0 0 1-33.461371 33.461371z m-0.058601-10.196635a23.704246 23.704246 0 1 0-23.674946-23.733547 23.628065 23.628065 0 0 0 23.674946 23.733547zM1084.124986 152.949525a24.31956 24.31956 0 1 1 24.31956-24.31956 24.29612 24.29612 0 0 1-24.31956 24.31956z m-0.234406-11.192858a13.366968 13.366968 0 1 0-12.892297-13.361108 13.267346 13.267346 0 0 0 12.892297 13.361108z m0 0"
        fill="#cccccc"
        p-id="14498"></path>
</svg>