<?xml version="1.0" standalone="no"?><!DOCTYPE svg PUBLIC "-//W3C//DTD SVG 1.1//EN" "http://www.w3.org/Graphics/SVG/1.1/DTD/svg11.dtd">
<svg t="1704457917563"
     class="icon"
     viewBox="0 0 1578 1024"
     version="1.1"
     xmlns="http://www.w3.org/2000/svg"
     p-id="10031"
     xmlns:xlink="http://www.w3.org/1999/xlink"
     width="147.9375"
     height="96"
     fill="currentColor">
    <path
        d="M1149.116888 77.197231a37.546565 37.546565 0 0 1-37.973231-37.973231 37.546565 37.546565 0 0 1 37.973231-37.962563 37.546565 37.546565 0 0 1 37.97323 37.97323c0.149333 21.301276-16.522622 37.97323-37.97323 37.973231z m0-59.26384c-12.042634 0-22.229273 10.186639-22.229273 22.229274 0 12.031967 10.186639 22.218606 22.229273 22.218606 12.031967 0 22.218606-10.186639 22.218606-22.218606 0.16-12.970632-10.02664-22.229273-22.218606-22.229274zM114.058358 283.09534c-24.074601 0-44.44788-20.373278-44.44788-44.458546 0-24.074601 20.373278-44.44788 44.44788-44.44788 24.085268 0 44.607879 20.373278 44.607879 44.44788-0.149333 24.074601-20.522611 44.44788-44.607879 44.447879z m0-73.173135a28.853255 28.853255 0 0 0-28.703923 28.714589 28.853255 28.853255 0 0 0 28.703923 28.714589 28.853255 28.853255 0 0 0 28.714589-28.714589 28.853255 28.853255 0 0 0-28.714589-28.703923zM1534.054512 681.174262c-24.074601 0-44.44788-20.373278-44.44788-44.458546 0-24.074601 20.373278-44.597213 44.44788-44.597213 24.074601 0 44.607879 20.373278 44.607879 44.597213 0 23.925269-20.373278 44.458546-44.607879 44.458546z m0-73.311802a28.853255 28.853255 0 0 0-28.703922 28.703923 28.853255 28.853255 0 0 0 28.703922 28.703922 28.853255 28.853255 0 0 0 28.714589-28.703922c0.149333-15.743957-12.810632-28.703922-28.714589-28.703923zM83.349108 472.321494H9.258642A9.279975 9.279975 0 0 1 0 463.073519v-0.927997a9.279975 9.279975 0 0 1 9.258642-9.258642h74.239799a9.279975 9.279975 0 0 1 9.269308 9.258642v0.927997c-0.16 4.629321-4.799987 9.258642-9.418641 9.258642z"
        fill="#cccccc"
        p-id="10032"></path>
    <path
        d="M55.573183 425.100289v74.239799a9.279975 9.279975 0 0 1-9.269308 9.258641h-0.927998a9.279975 9.279975 0 0 1-9.258641-9.258641v-74.239799a9.279975 9.279975 0 0 1 9.258641-9.258642h0.927998a9.279975 9.279975 0 0 1 9.258641 9.258642z m434.174824-390.505609h-46.463874c-2.773326 0-5.546652-2.773326-5.546652-5.546652v-0.927997c0-2.773326 2.773326-5.557318 5.546652-5.557319h46.463874c2.773326 0 5.546652 2.773326 5.546652 5.546652v0.938664c0 2.773326-2.773326 5.546652-5.546652 5.546652z"
        fill="#cccccc"
        p-id="10033"></path>
    <path
        d="M472.916053 5.741424v46.293208c0 2.783992-2.773326 5.567985-5.546652 5.567985h-0.927998c-2.773326 0-5.557318-2.773326-5.557318-5.557318V5.741424c0-2.773326 2.773326-5.557318 5.546652-5.557318h0.927997c2.773326-0.927997 5.557318 1.845328 5.557319 5.546652z m694.878118 934.109471h-29.642587a8.298644 8.298644 0 0 1-8.330644-8.341311c0-4.629321 3.701323-8.330644 8.330644-8.330644h29.642587c4.629321 0 8.330644 3.701323 8.330644 8.330644 0 4.629321-4.629321 8.341311-8.330644 8.341311z m-71.466474 0H469.214729a8.298644 8.298644 0 0 1-8.330644-8.341311c0-4.629321 3.701323-8.330644 8.330644-8.330644h627.112968c4.629321 0 8.330644 3.701323 8.330645 8.330644a8.298644 8.298644 0 0 1-8.330645 8.341311z m-664.158201 0h-26.858594a8.298644 8.298644 0 0 1-8.319977-8.341311c0-4.629321 3.690657-8.330644 8.319977-8.330644h26.858594c4.629321 0 8.341311 3.701323 8.341311 8.330644a8.298644 8.298644 0 0 1-8.341311 8.341311z m1080.58374 79.78645h-56.639846a8.298644 8.298644 0 0 1-8.341311-8.319977c0-4.639987 3.71199-8.341311 8.341311-8.341311h56.639846c4.629321 0 8.341311 3.701323 8.341311 8.330644-0.927997 4.629321-3.71199 8.341311-8.341311 8.341311z m-119.615676 0H635.294279a8.298644 8.298644 0 0 1-8.34131-8.319977c0-4.639987 3.71199-8.341311 8.34131-8.341311h757.843281c4.629321 0 8.330644 3.701323 8.330644 8.330644a8.298644 8.298644 0 0 1-8.330644 8.341311z m-794.888514 0H531.411894a8.298644 8.298644 0 0 1-8.319977-8.319977c0-4.639987 3.690657-8.341311 8.319977-8.341311h66.837152c4.629321 0 8.330644 3.701323 8.330645 8.330644a8.298644 8.298644 0 0 1-8.330645 8.341311z m-102.954387 0h-311.785823a8.298644 8.298644 0 0 1-8.319977-8.319977c0-4.639987 3.701323-8.341311 8.319977-8.341311H495.145326c4.629321 0 8.330644 3.701323 8.330644 8.330644a8.074645 8.074645 0 0 1-8.181311 8.341311z m-354.377707 0h-51.093195a8.298644 8.298644 0 0 1-8.319978-8.319977c0-4.639987 3.690657-8.341311 8.319978-8.341311h51.093195c4.629321 0 8.341311 3.701323 8.34131 8.330644-0.927997 4.629321-4.639987 8.341311-8.34131 8.341311zM1368.134961 258.092741c-2.773326 0-4.629321-1.845328-4.62932-4.629321V216.428854c0-2.773326 1.845328-4.629321 4.62932-4.629321h0.927998c2.773326 0 4.629321 1.855995 4.629321 4.629321v37.045233c-0.927997 2.773326-2.773326 4.629321-5.557319 4.629321z m-9.258641 3.71199a4.479988 4.479988 0 0 1-6.485316 0l-25.930596-25.930596a4.479988 4.479988 0 0 1 0-6.485316 4.479988 4.479988 0 0 1 6.485315 0l25.91993 25.91993a4.479988 4.479988 0 0 1 0 6.495982z m-4.629321 9.258642c0 2.773326-1.855995 4.629321-4.639988 4.62932h-37.034566c-2.773326 0-4.639987-1.855995-4.639987-4.62932v-0.927998c0-2.773326 1.855995-4.629321 4.639987-4.629321h37.034566c2.773326 1.855995 4.639987 3.701323 4.639988 5.546652z m3.701323 10.186639a4.479988 4.479988 0 0 1 0 6.485315l-25.930596 25.91993a4.479988 4.479988 0 0 1-6.485316 0 4.479988 4.479988 0 0 1 0-6.474649l25.930596-25.930596c2.773326-1.855995 5.557318-1.855995 6.485316 0z m10.186639 3.701323c2.773326 0 4.629321 1.855995 4.629321 4.629321v37.045233c0 2.773326-1.855995 4.629321-4.629321 4.629321h-0.927997c-2.773326 0-4.629321-1.845328-4.629321-4.629321v-37.045233c0.927997-2.773326 2.773326-4.629321 5.546652-4.629321z m9.258642-3.701323a4.479988 4.479988 0 0 1 6.485316 0l25.919929 25.919929a4.479988 4.479988 0 0 1 0 6.495983 4.479988 4.479988 0 0 1-6.474649 0l-25.930596-25.930597a7.914645 7.914645 0 0 1 0-6.485315z m4.629321-9.258642c0-2.773326 1.855995-4.629321 4.62932-4.629321h37.045233c2.773326 0 4.629321 1.845328 4.629321 4.629321v0.917331c0 2.773326-1.855995 4.639987-4.629321 4.639987h-37.045233c-2.773326-1.855995-4.629321-3.71199-4.62932-5.557318z m-3.701324-10.186639a4.479988 4.479988 0 0 1 0-6.485316l25.91993-25.930596a4.479988 4.479988 0 0 1 6.495983 0 4.479988 4.479988 0 0 1 0 6.485316l-25.930597 25.919929a4.479988 4.479988 0 0 1-6.485316 0zM1031.34654 311.041931l-257.919301 29.63192-25.002599 74.239799 295.892532-34.261241-12.970632-69.610478z m-357.161699 64.821158l12.191967-35.199905H413.652213l-12.970632 25.013266v25.930596l6.485316 20.522611 248.500661-0.917331h18.517283"
        fill="#cccccc"
        p-id="10034"></path>
    <path
        d="M678.974161 848.011143H417.353536c-14.81596 0-26.858594-14.826627-26.858594-33.343909V363.820455c0-18.517283 12.042634-33.333243 26.858594-33.333243H706.771419L627.880966 549.334619l172.564866 164.234222L678.974161 848.000477zM417.353536 350.86049c-1.855995 0-6.485316 4.629321-6.485315 12.959965v450.846779c0 7.413313 3.71199 12.970632 6.485315 12.970631H668.798189l102.02639-113.141027-167.007548-159.594234L677.118166 351.788487l-259.76463-0.927997z"
        fill="#cccccc"
        p-id="10035"></path>
    <path
        d="M488.201344 553.974606l0.767998-21.290609 136.287631 5.247986-0.767998 21.290609-136.287631-5.247986z m4.479988 74.399799l0.767998-21.301276 199.252794 7.573313-0.767998 21.290609-199.252794-7.562646z m31.94658 87.519763l0.767998-21.301276 261.460626 10.02664-0.767998 21.301275-261.460626-10.026639z m179.967513-198.036797l264.852616-35.029239 2.783993 21.141276-264.703284 35.039906-2.933325-21.151943z m68.373148 86.901098l185.684831-25.151932 2.933325 21.141276-185.68483 25.162598-2.933326-21.151942zM853.693688 704.000867l185.68483-25.151932 2.922659 21.141276-185.674164 25.162598L853.693688 704.000867zM742.099323 410.742994l303.913844-43.370549 3.093325 21.151943-303.913844 43.370549-3.093325-21.151943z m-341.567074-5.706651l260.692627-2.47466 0.149333 21.301276-260.692628 2.47466-0.149332-21.301276z"
        fill="#cccccc"
        p-id="10036"></path>
    <path
        d="M781.000551 836.907173l66.826486-134.442302-160.522232-160.532899L766.184592 331.415209l251.433985-35.199905c14.826627-1.845328 28.714589 11.114637 31.487915 29.642587l62.207832 446.217458c0.917331 8.330644 0 16.661288-3.71199 23.146604-3.701323 7.413313-11.114637 12.970632-18.517284 13.898629l-308.073832 27.775925z m-69.610478-300.521852l162.367561 162.36756-57.567845 114.069024 269.951269-25.002599s1.855995-0.927997 2.773326-2.773325c1.855995-2.783992 1.855995-6.495982 1.855995-10.197306L1028.583881 328.641883c-0.927997-7.402647-5.557318-12.042634-7.413313-12.042634l-239.242019 33.34391-70.527809 186.452828z"
        fill="#cccccc"
        p-id="10037"></path>
</svg>