<?xml version="1.0" standalone="no"?><!DOCTYPE svg PUBLIC "-//W3C//DTD SVG 1.1//EN" "http://www.w3.org/Graphics/SVG/1.1/DTD/svg11.dtd">
<svg t="1705839560598"
     class="icon"
     viewBox="0 0 1024 1024"
     version="1.1"
     xmlns="http://www.w3.org/2000/svg"
     p-id="7258"
     xmlns:xlink="http://www.w3.org/1999/xlink"
     width="96"
     height="96"
     fill="currentColor">
    <path
        d="M927.7 411.6c-29.1-37.3-73.4-59.1-121.4-59.8l-130.8-2c9.8-45.2 13.4-85.8 10.7-121.2-3.2-42.3-15.3-77.7-36-105-14.1-18.7-31.7-33.1-52.2-42.6-21.3-9.9-39.9-12-51.8-12-71.7 0-130 53.9-130 120.1 0 107.6-69.2 195.1-154.4 195.1h-121c-41.9 0-76 34.1-76 76v412.7c0 41.9 34.1 76 76 76h592c35.8 0 70.9-12 98.9-33.7C860 893.3 880 862.3 888 828l67.7-290.4c10.3-44.1 0.1-90-28-126zM225.9 876.8h-85.1c-2.2 0-4-1.8-4-4V460.2c0-2.2 1.8-4 4-4h85.1v420.6z m659.7-355.6l-67.7 290.4c-4.3 18.3-15 34.8-30.2 46.6-15.5 12-34.9 18.6-54.8 18.6h-435v-424c18.8-3.5 37-9.8 54.6-18.8 27.1-13.9 51.2-33.6 71.9-58.7 41.2-50.1 63.9-116.2 63.9-186.4 0-26.5 26-48.1 58-48.1 2.8 0 27.4 0.7 46.5 26 28.9 38.3 29.7 112.3 2.2 208.3-3.1 10.8-1 22.4 5.7 31.4s17.2 14.4 28.4 14.5l176.3 2.7c26.1 0.4 50.1 12.1 65.8 32.2 14.6 19 19.8 42.2 14.4 65.3z"
        p-id="7259"
        fill="#cccccc"></path>
</svg>