<?xml version="1.0" standalone="no"?><!DOCTYPE svg PUBLIC "-//W3C//DTD SVG 1.1//EN" "http://www.w3.org/Graphics/SVG/1.1/DTD/svg11.dtd">
<svg t="1705798904745"
     class="icon"
     viewBox="0 0 1024 1024"
     version="1.1"
     xmlns="http://www.w3.org/2000/svg"
     p-id="8022"
     xmlns:xlink="http://www.w3.org/1999/xlink"
     width="96"
     height="96"
     fill="currentColor">
    <path
        d="M832 938.666667h-170.666667c-59.733333 0-106.666667-46.933333-106.666666-106.666667v-170.666667c0-59.733333 46.933333-106.666667 106.666666-106.666666h170.666667c59.733333 0 106.666667 46.933333 106.666667 106.666666v170.666667c0 59.733333-46.933333 106.666667-106.666667 106.666667z m-170.666667-298.666667c-12.8 0-21.333333 8.533333-21.333333 21.333333v170.666667c0 12.8 8.533333 21.333333 21.333333 21.333333h170.666667c12.8 0 21.333333-8.533333 21.333333-21.333333v-170.666667c0-12.8-8.533333-21.333333-21.333333-21.333333h-170.666667zM362.666667 85.333333H192C134.4 85.333333 85.333333 132.266667 85.333333 192v170.666667c0 59.733333 46.933333 106.666667 106.666667 106.666666h170.666667c59.733333 0 106.666667-46.933333 106.666666-106.666666V192c0-59.733333-46.933333-106.666667-106.666666-106.666667zM832 85.333333h-170.666667c-59.733333 0-106.666667 46.933333-106.666666 106.666667v170.666667c0 59.733333 46.933333 106.666667 106.666666 106.666666h170.666667c59.733333 0 106.666667-46.933333 106.666667-106.666666V192c0-59.733333-46.933333-106.666667-106.666667-106.666667zM362.666667 554.666667H192c-59.733333 0-106.666667 46.933333-106.666667 106.666666v170.666667c0 59.733333 46.933333 106.666667 106.666667 106.666667h170.666667c59.733333 0 106.666667-46.933333 106.666666-106.666667v-170.666667c0-59.733333-46.933333-106.666667-106.666666-106.666666z"
        fill="#cccccc"
        p-id="8023"></path>
</svg>