<?xml version="1.0" standalone="no"?><!DOCTYPE svg PUBLIC "-//W3C//DTD SVG 1.1//EN" "http://www.w3.org/Graphics/SVG/1.1/DTD/svg11.dtd">
<svg t="1704458600528"
     class="icon"
     viewBox="0 0 1024 1024"
     version="1.1"
     xmlns="http://www.w3.org/2000/svg"
     p-id="1596"
     xmlns:xlink="http://www.w3.org/1999/xlink"
     width="96"
     height="96"
     fill="currentColor">
    <path
        d="M512 1024C229.239467 1024 0 794.760533 0 512S229.239467 0 512 0 1024 229.239467 1024 512 794.760533 1024 512 1024zM841.955556 523.377778a323.492978 323.492978 0 0 0-25.281423-118.556445c-15.997156-38.320356-39.5264-73.045333-70.610489-104.129422-31.106844-31.084089-65.809067-54.499556-104.129422-70.269155A337.874489 337.874489 0 0 0 523.377778 204.8c4.824178 35.475911 16.315733 71.384178 34.474666 107.7248 18.204444 36.340622 43.030756 70.291911 74.569956 101.808356 31.516444 31.5392 65.467733 56.502044 101.808356 74.888533 36.340622 18.386489 72.248889 29.787022 107.7248 34.156089zM493.954844 204.8c-36.2496 3.413333-71.224889 12.788622-104.903111 28.148622a319.761067 319.761067 0 0 0-92.137244 63.965867 319.761067 319.761067 0 0 0-63.965867 92.114489A324.790044 324.790044 0 0 0 204.8 493.932089c39.662933 4.7104 79.416889 16.748089 119.307378 36.181333 39.867733 19.387733 77.095822 46.353067 111.638755 80.896 34.542933 34.542933 61.622044 71.771022 81.237334 111.638756 19.615289 39.867733 31.766756 79.644444 36.4544 119.307378a326.473956 326.473956 0 0 0 104.607289-27.830045c33.450667-15.132444 64.079644-36.568178 91.795911-64.284444 27.716267-27.716267 49.152-58.322489 64.284444-91.795911A326.473956 326.473956 0 0 0 841.955556 553.415111c-39.662933-4.687644-79.416889-16.839111-119.307378-36.4544-39.867733-19.615289-77.095822-46.6944-111.638756-81.237333-34.542933-34.542933-61.508267-71.771022-80.918755-111.638756-19.410489-39.867733-31.448178-79.644444-36.135823-119.307378zM204.8 523.377778c1.319822 40.732444 9.853156 80.258844 25.622756 118.556444 15.7696 38.320356 39.185067 73.045333 70.269155 104.129422 31.106844 31.084089 65.809067 54.613333 104.129422 70.610489A323.492978 323.492978 0 0 0 523.377778 841.955556c-4.369067-35.475911-15.7696-71.384178-34.156089-107.7248-18.386489-36.340622-43.349333-70.291911-74.865778-101.808356-31.5392-31.5392-65.490489-56.388267-101.831111-74.569956C276.184178 539.693511 240.275911 528.201956 204.8 523.377778z"
        fill="#D8D8D8"
        p-id="1597"></path>
</svg>