<?xml version="1.0" standalone="no"?><!DOCTYPE svg PUBLIC "-//W3C//DTD SVG 1.1//EN" "http://www.w3.org/Graphics/SVG/1.1/DTD/svg11.dtd">
<svg t="1704457630326"
     class="icon"
     viewBox="0 0 1396 1024"
     version="1.1"
     xmlns="http://www.w3.org/2000/svg"
     p-id="8970"
     xmlns:xlink="http://www.w3.org/1999/xlink"
     width="130.875"
     height="96"
     fill="currentColor">
    <path
        d="M329.867636 458.863709l0.660946 3.239564a9.057745 9.057745 0 0 1-2.085237 7.949963l-2.14109 2.438982a1.7408 1.7408 0 0 0-0.372364 1.796655 1.657018 1.657018 0 0 0 1.405673 1.098472l3.193018 0.279273a8.676073 8.676073 0 0 1 6.702545 4.552146l1.545309 2.885818c0.279273 0.595782 0.856436 0.968145 1.489455 0.968145 0.623709 0 1.210182-0.372364 1.480145-0.958836l1.321891-3.072a8.527127 8.527127 0 0 1 6.209164-5.166546l3.137164-0.623709a1.675636 1.675636 0 0 0 1.275345-1.2288 1.7408 1.7408 0 0 0-0.502691-1.722181l-2.420364-2.215564a9.132218 9.132218 0 0 1-2.811345-7.726546l0.390982-3.286109a1.778036 1.778036 0 0 0-0.763346-1.6384 1.657018 1.657018 0 0 0-1.768727-0.065163l-2.746182 1.703563a8.443345 8.443345 0 0 1-7.977891 0.456146l-2.913745-1.424291a1.610473 1.610473 0 0 0-1.647709 0.186182 1.731491 1.731491 0 0 0-0.651637 1.582545z"
        fill="#cccccc"
        p-id="8971"></path>
    <path
        d="M1123.793455 673.866473l1.191563 4.347345c1.024 3.798109-0.297891 7.773091-3.518836 10.612364l-3.649164 3.258182a1.982836 1.982836 0 0 0-0.539927 2.364509c0.381673 0.809891 1.284655 1.368436 2.327273 1.442909l5.3248 0.446836c4.701091 0.353745 8.880873 2.606545 11.170909 6.022982l2.569309 3.853964a2.923055 2.923055 0 0 0 2.513454 1.275345 2.923055 2.923055 0 0 0 2.513455-1.275345l2.085236-4.096c1.861818-3.565382 5.7344-6.134691 10.333091-6.870109l5.3248-0.837819c1.024-0.186182 1.8432-0.837818 2.103855-1.684945 0.269964-0.837818-0.065164-1.7408-0.847128-2.317964l-4.002909-2.913745c-3.537455-2.569309-5.306182-6.413964-4.719709-10.267927l0.651637-4.393891c0.121018-0.865745-0.372364-1.722182-1.247419-2.196946a3.314036 3.314036 0 0 0-2.932363-0.074473l-4.598691 2.271419a17.091491 17.091491 0 0 1-13.330618 0.539927l-4.840728-1.871127a3.304727 3.304727 0 0 0-2.75549 0.269963c-0.800582 0.484073-1.2288 1.284655-1.1264 2.094546z"
        fill="#cccccc"
        p-id="8972"></path>
    <path
        d="M208.169891 571.829527c15.704436-0.837818 29.882182-9.188073 37.571491-22.127709a41.276509 41.276509 0 0 0 0.400291-41.7792 3.546764 3.546764 0 0 1 0.837818-4.170473 4.105309 4.105309 0 0 1 4.440436-0.698181c16.1792 6.581527 26.968436 21.280582 27.796946 37.888 0.837818 16.598109-8.443345 32.200145-23.896437 40.178036a48.463127 48.463127 0 0 1-48.779636-2.625164 3.556073 3.556073 0 0 1-1.6384-3.863272 3.798109 3.798109 0 0 1 3.258182-2.802037z"
        fill="#cccccc"
        p-id="8973"></path>
    <path
        d="M502.690909 265.309091a23.272727 23.272727 0 1 1-46.545454 0 23.272727 23.272727 0 0 1 46.545454 0zM1051.927273 870.4a13.963636 13.963636 0 1 1-27.927273 0 13.963636 13.963636 0 0 1 27.927273 0z"
        fill="#cccccc"
        p-id="8974"></path>
    <path
        d="M828.509091 902.9632v-0.968145C828.509091 866.555345 801.419636 837.818182 768 837.818182S707.490909 866.555345 707.490909 901.995055a66.066618 66.066618 0 0 0 6.795636 28.914036A309.527273 309.527273 0 0 0 828.509091 902.9632zM438.644364 605.090909a45.028073 45.028073 0 0 0-38.344146 21.773964c-0.186182 19.707345 2.159709 39.358836 6.981818 58.442472a44.609164 44.609164 0 0 0 54.6816 6.274328c17.529018-10.752 25.9072-32.162909 20.470691-52.335709-5.445818-20.1728-23.356509-34.145745-43.780654-34.155055zM1005.381818 700.676655c-8.992582-4.347345-19.483927-2.932364-27.219782 3.667781-7.726545 6.609455-11.403636 17.3056-9.541818 27.741091 1.861818 10.454109 8.955345 18.906764 18.404073 21.950837A377.176436 377.176436 0 0 0 1005.381818 700.676655z"
        fill="#cccccc"
        p-id="8975"></path>
    <path
        d="M712.517818 930.909091c-162.741527 0.2048-298.263273-124.779055-311.221527-287.017891-12.958255-162.229527 101.031564-307.144145 261.743709-332.762764 160.712145-25.627927 314.088727 76.660364 352.228073 234.886982 38.130036 158.217309-51.833018 319.152873-206.568728 369.5616A309.229382 309.229382 0 0 1 712.517818 930.909091z m0.679564-615.247127c-31.986036 0.027927-63.767273 5.073455-94.189382 14.969018C469.085091 379.624727 381.998545 535.663709 419.002182 689.003055c36.994327 153.348655 185.632582 252.499782 341.420218 227.746909 155.778327-24.762182 266.370327-165.096727 254.017164-322.3552-12.353164-157.258473-143.499636-278.611782-301.242182-278.7328z"
        fill="#cccccc"
        p-id="8976"></path>
    <path
        d="M779.412945 739.625891c-261.5296 138.630982-491.799273 200.387491-524.232145 140.567273-19.474618-35.886545 35.774836-106.356364 151.524073-193.349819a4.012218 4.012218 0 0 1 4.142545-0.875054 3.919127 3.919127 0 1 1 0.679564 7.0656c-109.009455 81.957236-166.260364 152.1664-149.336437 183.640436 29.351564 54.104436 264.4992-11.692218 513.563928-143.713745 249.055418-132.002909 434.641455-289.205527 405.289891-343.300655-16.979782-31.483345-108.357818-22.928291-238.545455 21.932218a3.965673 3.965673 0 1 1-2.8672-7.400727c137.979345-47.588073 228.575418-54.197527 248.105891-18.208582 32.637673 59.606109-146.795055 215.021382-408.324655 353.652364z"
        fill="#cccccc"
        p-id="8977"></path>
    <path
        d="M625.086836 557.130473a5.697164 5.697164 0 0 0-1.377745 3.770182c0 1.414982 0.493382 2.774109 1.377745 3.770181l19.5584 20.6848a2.792727 2.792727 0 0 0 4.151855 0.353746c26.735709-30.915491 69.613382-33.494109 99.0208-5.9392 1.852509 1.8432 4.654545 1.694255 6.330182-0.363055l17.277672-21.392291a5.697164 5.697164 0 0 0 1.219491-3.853963 5.538909 5.538909 0 0 0-1.582545-3.6864c-42.859055-41.304436-106.123636-38.418618-145.966546 6.656zM826.898618 473.227636c-75.748073-64.772655-189.002473-58.9824-257.7408 13.153746a4.8128 4.8128 0 0 0 0.269964 6.851491l18.962618 17.063563c1.647709 1.964218 4.561455 2.271418 6.581527 0.698182 55.482182-58.246982 146.860218-63.0784 208.197818-11.021963 1.926982 1.647709 4.8128 1.489455 6.534982-0.372364l17.566255-19.418764a4.9152 4.9152 0 0 0-0.372364-6.898036v-0.055855z"
        fill="#cccccc"
        p-id="8978"></path>
    <path
        d="M707.490909 595.781818m-27.927273 0a27.927273 27.927273 0 1 0 55.854546 0 27.927273 27.927273 0 1 0-55.854546 0Z"
        fill="#cccccc"
        p-id="8979"></path>
    <path
        d="M958.836364 567.854545a18.618182 18.618182 0 1 1-37.236364 0 18.618182 18.618182 0 0 1 37.236364 0z"
        fill="#cccccc"
        p-id="8980"></path>
    <path
        d="M893.672727 767.944145a32.581818 32.581818 0 1 1-65.163636 0.11171 32.581818 32.581818 0 0 1 65.163636-0.11171z"
        fill="#cccccc"
        p-id="8981"></path>
    <path
        d="M539.927273 474.707782a18.618182 18.618182 0 1 1-37.236364 0.111709 18.618182 18.618182 0 0 1 37.236364-0.111709z"
        fill="#cccccc"
        p-id="8982"></path>
    <path
        d="M754.036364 381.672727l94.580363-56.515491a3.630545 3.630545 0 0 0-1.117091-6.702545l-38.167272-8.266473a1.117091 1.117091 0 0 1-0.437528-2.010763l55.240146-40.159419a3.909818 3.909818 0 0 0-1.442909-6.981818l-44.506764-9.606982a3.8912 3.8912 0 0 0-3.947054 1.508073l-50.79971 68.756946a4.822109 4.822109 0 0 0 2.783419 7.596218l27.089454 6.190545a1.005382 1.005382 0 0 1 0.502691 1.675637L754.036364 381.672727zM819.2 456.145455l54.923636-32.209455a2.066618 2.066618 0 0 0-0.623709-3.816727l-22.174254-4.7104a0.670255 0.670255 0 0 1-0.353746-0.586473c0-0.242036 0.139636-0.465455 0.353746-0.586473l32.125672-22.918982a2.224873 2.224873 0 0 0-0.856436-3.974981l-25.814109-5.604073a2.234182 2.234182 0 0 0-2.327273 0.837818l-29.509818 39.2192a2.7648 2.7648 0 0 0-0.363054 2.625164 2.829964 2.829964 0 0 0 2.010763 1.750109l15.695127 3.537454a0.623709 0.623709 0 0 1 0.41891 0.372364 0.605091 0.605091 0 0 1-0.074473 0.567855L819.2 456.145455z"
        fill="#cccccc"
        p-id="8983"></path>
</svg>