<?xml version="1.0" standalone="no"?><!DOCTYPE svg PUBLIC "-//W3C//DTD SVG 1.1//EN" "http://www.w3.org/Graphics/SVG/1.1/DTD/svg11.dtd">
<svg t="1704458574800"
     class="icon"
     viewBox="0 0 1024 1024"
     version="1.1"
     xmlns="http://www.w3.org/2000/svg"
     p-id="1143"
     xmlns:xlink="http://www.w3.org/1999/xlink"
     width="96"
     height="96"
     fill="currentColor">
    <path
        d="M512 1024C229.239467 1024 0 794.760533 0 512S229.239467 0 512 0 1024 229.239467 1024 512 794.760533 1024 512 1024z m287.698489-285.650489c-0.227556-0.068267-23.597511-9.261511-41.961245-26.396444a290.816 290.816 0 0 1-14.768355-14.791111 294.570667 294.570667 0 0 0 74.456178-196.243912c0-163.202844-132.027733-295.5264-294.912-295.5264C359.560533 205.391644 227.555556 337.7152 227.555556 500.918044 227.555556 664.143644 359.583289 796.444444 522.490311 796.444444a293.091556 293.091556 0 0 0 177.038222-59.164444c5.575111 6.030222 11.719111 12.265244 18.568534 18.614044a204.162844 204.162844 0 0 0 60.8256 38.138312c3.413333 1.274311 6.872178 1.911467 10.331022 1.911466 11.787378 0 22.960356-7.350044 27.397689-19.228444a29.946311 29.946311 0 0 0-16.952889-38.365867z"
        fill="#cccccc"
        p-id="1144"></path>
    <path
        d="M365.090133 560.150756a59.050667 59.050667 0 0 1-58.9824-59.096178 59.050667 59.050667 0 0 1 58.9824-59.073422 59.050667 59.050667 0 0 1 59.005156 59.073422 59.050667 59.050667 0 0 1-59.005156 59.096178zM522.353778 717.6192a59.050667 59.050667 0 0 1-58.9824-59.073422 59.050667 59.050667 0 0 1 58.9824-59.073422 59.050667 59.050667 0 0 1 58.9824 59.073422 59.005156 59.005156 0 0 1-58.9824 59.073422zM492.9536 500.918044a29.445689 29.445689 0 1 1 58.914133 0.045512 29.445689 29.445689 0 0 1-58.914133-0.045512zM522.353778 402.500267a59.050667 59.050667 0 0 1-58.9824-59.073423 59.050667 59.050667 0 0 1 58.9824-59.073422 59.050667 59.050667 0 0 1 58.9824 59.073422 59.050667 59.050667 0 0 1-58.9824 59.073423zM679.890489 560.150756a59.050667 59.050667 0 0 1-58.9824-59.096178 59.050667 59.050667 0 0 1 58.9824-59.073422 59.050667 59.050667 0 0 1 58.9824 59.073422 59.050667 59.050667 0 0 1-58.9824 59.096178z"
        fill="#cccccc"
        p-id="1145"></path>
</svg>