<?xml version="1.0" standalone="no"?><!DOCTYPE svg PUBLIC "-//W3C//DTD SVG 1.1//EN" "http://www.w3.org/Graphics/SVG/1.1/DTD/svg11.dtd">
<svg t="1704458652157"
     class="icon"
     viewBox="0 0 1024 1024"
     version="1.1"
     xmlns="http://www.w3.org/2000/svg"
     p-id="1750"
     xmlns:xlink="http://www.w3.org/1999/xlink"
     width="96"
     height="96"
     fill="currentColor">
    <path
        d="M512 1024C229.239467 1024 0 794.760533 0 512S229.239467 0 512 0 1024 229.239467 1024 512 794.760533 1024 512 1024z m299.781689-588.231111l-258.048-218.498845a48.082489 48.082489 0 0 0-61.189689-0.728177l-257.592889 208.0768a19.8656 19.8656 0 1 0 24.9856 30.947555l20.297956-16.384v285.422934c0 26.441956 21.549511 25.213156 47.991466 25.213155h85.105778c26.441956 0 47.968711 1.2288 47.968711-25.213155v-156.694756c0-4.551111 3.640889-8.146489 8.169245-8.146489h98.668089c4.551111 0 8.169244 3.618133 8.169244 8.146489v156.694756c0 26.441956 21.549511 25.213156 47.968711 25.213155h82.375111c26.464711 0 48.014222 1.2288 48.014222-25.213155V439.637333l31.311645 26.532978a19.842844 19.842844 0 0 0 28.080355-2.343822 19.933867 19.933867 0 0 0-2.275555-28.080356z"
        fill="#D8D8D8"
        p-id="1751"></path>
</svg>