<?xml version="1.0" standalone="no"?><!DOCTYPE svg PUBLIC "-//W3C//DTD SVG 1.1//EN" "http://www.w3.org/Graphics/SVG/1.1/DTD/svg11.dtd">
<svg t="1704458589710"
     class="icon"
     viewBox="0 0 1024 1024"
     version="1.1"
     xmlns="http://www.w3.org/2000/svg"
     p-id="1442"
     xmlns:xlink="http://www.w3.org/1999/xlink"
     width="96"
     height="96"
     fill="currentColor">
    <path
        d="M512 1024C229.239467 1024 0 794.760533 0 512S229.239467 0 512 0 1024 229.239467 1024 512 794.760533 1024 512 1024z m215.813689-682.552889v-106.0864c0-18.568533-15.746844-32.813511-33.268622-30.037333l-323.265423 51.268266c-13.425778 2.161778-23.369956 14.267733-23.369955 28.512712v338.602666a86.721422 86.721422 0 0 0-32.426667-6.257778c-48.5376 0-87.927467 39.867733-87.927466 89.065245 0 49.220267 39.367111 89.088 87.927466 89.088s87.881956-39.822222 87.881956-89.019733c0-1.547378-0.068267-3.094756-0.136534-4.642134h0.136534V392.942933l268.925155-42.689422v217.224533a87.4496 87.4496 0 0 0-32.540444-6.303288c-48.696889 0-88.064 39.867733-88.064 89.065244 0 49.220267 39.435378 89.088 88.064 89.088 48.605867 0 88.064-39.867733 88.064-89.088 0-2.412089-0.136533-4.824178-0.273067-7.259022V341.515378l0.273067-0.068267z"
        fill="#D8D8D8"
        p-id="1443"></path>
</svg>