<?xml version="1.0" standalone="no"?><!DOCTYPE svg PUBLIC "-//W3C//DTD SVG 1.1//EN" "http://www.w3.org/Graphics/SVG/1.1/DTD/svg11.dtd">
<svg t="1706163968987"
     class="icon"
     viewBox="0 0 1024 1024"
     version="1.1"
     xmlns="http://www.w3.org/2000/svg"
     p-id="19774"
     xmlns:xlink="http://www.w3.org/1999/xlink"
     width="96"
     height="96"
     fill="currentColor">
    <path
        d="M512 128c211.7632 0 384 172.2368 384 384s-172.2368 384-384 384-384-172.2368-384-384 172.2368-384 384-384m0-40.96c-234.7008 0-424.96 190.2592-424.96 424.96s190.2592 424.96 424.96 424.96 424.96-190.2592 424.96-424.96-190.2592-424.96-424.96-424.96z"
        fill="#666666"
        p-id="19775"></path>
    <path
        d="M512 491.52c-16.9472 0-30.72 13.7728-30.72 30.72s13.7728 30.72 30.72 30.72 30.72-13.7728 30.72-30.72-13.7728-30.72-30.72-30.72zM304.64 491.52c-16.9472 0-30.72 13.7728-30.72 30.72s13.7728 30.72 30.72 30.72 30.72-13.7728 30.72-30.72-13.7728-30.72-30.72-30.72zM719.36 491.52c-16.9472 0-30.72 13.7728-30.72 30.72s13.7728 30.72 30.72 30.72 30.72-13.7728 30.72-30.72-13.7728-30.72-30.72-30.72z"
        fill="#666666"
        p-id="19776"></path>
</svg>