<?xml version="1.0" standalone="no"?><!DOCTYPE svg PUBLIC "-//W3C//DTD SVG 1.1//EN" "http://www.w3.org/Graphics/SVG/1.1/DTD/svg11.dtd">
<svg t="1704460382610"
     class="icon"
     viewBox="0 0 1024 1024"
     version="1.1"
     xmlns="http://www.w3.org/2000/svg"
     p-id="7810"
     xmlns:xlink="http://www.w3.org/1999/xlink"
     width="96"
     height="96"
     fill="currentColor">
    <path
        d="M960 938.666667H64a21.333333 21.333333 0 0 1 0-42.666667h896a21.333333 21.333333 0 0 1 0 42.666667z m0-384H64a21.333333 21.333333 0 0 1 0-42.666667h896a21.333333 21.333333 0 0 1 0 42.666667z m0-384H405.333333a21.333333 21.333333 0 0 1 0-42.666667h554.666667a21.333333 21.333333 0 0 1 0 42.666667zM69.333333 256a26.706667 26.706667 0 0 1-26.666666-26.666667V69.333333a26.666667 26.666667 0 0 1 41.686666-22l117.333334 80a26.666667 26.666667 0 0 1 0 44.066667l-117.333334 80A26.666667 26.666667 0 0 1 69.333333 256z m16-156.38v99.426667L158.253333 149.333333z"
        fill="#cccccc"
        p-id="7811"></path>
</svg>