<?xml version="1.0" standalone="no"?><!DOCTYPE svg PUBLIC "-//W3C//DTD SVG 1.1//EN" "http://www.w3.org/Graphics/SVG/1.1/DTD/svg11.dtd">
<svg t="1707366099801"
     class="icon"
     viewBox="0 0 1024 1024"
     version="1.1"
     xmlns="http://www.w3.org/2000/svg"
     p-id="8424"
     xmlns:xlink="http://www.w3.org/1999/xlink"
     width="96"
     height="96"
     fill="currentColor">

    <path
        d="M659.437037 834.446222 380.776296 834.446222l101.963852 102.172444c11.320889 11.320889 11.320889 29.696 0 41.035852-11.320889 11.339852-29.639111 11.339852-40.96 0l-150.20563-150.509037c-11.301926-11.320889-11.301926-29.696 0-41.035852 11.264-11.282963 30.568296-9.159111 49.891556-9.159111l0 0c6.618074 0.493037 13.217185 1.005037 19.949037 1.005037l298.875259 0c147.683556 0 267.396741-119.011556 267.396741-265.822815 0-87.058963-42.287407-164.086519-107.349333-212.574815l0 0c-5.404444-5.176889-8.836741-12.382815-8.836741-20.442074 0-15.720296 12.743111-28.444444 28.444444-28.444444 8.969481 0 16.630519 4.399407 21.845333 10.884741 74.884741 59.050667 124.150519 148.612741 124.150519 250.576593C985.92237 690.157037 839.755852 834.446222 659.437037 834.446222zM710.580148 237.530074c-8.00237 7.983407-22.300444 12.951704-32.331852 9.690074l0 0c-5.973333-0.398222-11.908741-0.910222-17.976889-0.910222L361.396148 246.309926c-147.683556 0-267.415704 119.011556-267.415704 265.822815 0 82.697481 38.437926 156.046222 98.038519 204.781037 11.036444 3.90637 17.825185 14.715259 17.825185 27.079111 0 15.701333-12.743111 28.444444-28.444444 28.444444-7.300741 0-13.805037-2.958222-18.830222-7.471407l0.360296 0.341333c-75.927704-59.012741-124.852148-150.376296-124.852148-253.174519 0-177.98637 146.166519-322.294519 326.485333-322.294519l257.403259 0-102.665481-102.798222c-11.320889-11.339852-11.320889-29.733926 0-41.054815 11.320889-11.320889 29.696-11.320889 40.997926 0l147.702519 147.930074c6.257778 5.594074 9.291852 14.032593 9.291852 14.032593C720.611556 218.036148 718.582519 229.508741 710.580148 237.530074z"
        p-id="8425"
        fill="#cccccc"></path>
    <path
        d="M532.043852 663.514074c-15.701333 0-28.444444-12.743111-28.444444-28.444444l0-218.074074-9.481481 0c-15.701333 0-28.444444-12.743111-28.444444-28.444444s12.743111-28.444444 28.444444-28.444444l37.925926 0c15.701333 0 28.444444 12.743111 28.444444 28.444444l0 246.518519C560.488296 650.789926 547.745185 663.514074 532.043852 663.514074z"
        p-id="8426"
        fill="#cccccc"></path>
</svg>