<?xml version="1.0" standalone="no"?><!DOCTYPE svg PUBLIC "-//W3C//DTD SVG 1.1//EN" "http://www.w3.org/Graphics/SVG/1.1/DTD/svg11.dtd">
<svg t="1704460977229"
     class="icon"
     viewBox="0 0 1024 1024"
     version="1.1"
     xmlns="http://www.w3.org/2000/svg"
     p-id="17392"
     xmlns:xlink="http://www.w3.org/1999/xlink"
     width="96"
     height="96"
     fill="currentColor">
    <path
        d="M512 1024C229.76 1024 0.96 794.88 0.96 512.256S229.76 0.704 512 0.704s511.04 229.056 511.04 511.616c0 282.56-228.8 511.616-511.04 511.616z m0-976.256C255.744 47.808 48 255.808 48 512.32s207.744 464.512 464 464.512 464-208 464-464.512S768.256 47.808 512 47.808z"
        p-id="17393"
        fill="#cccccc"></path>
    <path
        d="M536.96 770.944c-26.496 26.56-36.8 10.496-47.296 0L284.8 565.76c-35.008-35.072 6.72-64.832 34.56-36.864l170.304 178.88V266.048c0-50.304 47.296-45.696 47.296 0V707.84L707.2 528.96c27.264-27.328 76.224-4.8 34.624 36.864L536.96 770.944z"
        p-id="17394"
        fill="#cccccc"></path>
</svg>