<?xml version="1.0" standalone="no"?><!DOCTYPE svg PUBLIC "-//W3C//DTD SVG 1.1//EN" "http://www.w3.org/Graphics/SVG/1.1/DTD/svg11.dtd">
<svg t="1706164002953"
     class="icon"
     viewBox="0 0 1024 1024"
     version="1.1"
     xmlns="http://www.w3.org/2000/svg"
     p-id="20981"
     xmlns:xlink="http://www.w3.org/1999/xlink"
     width="96"
     height="96"
     fill="currentColor">
    <path
        d="M486.24999946 916.83465951c-31.82923301-18.31312306-54.83377409-51.39440671-58.18263181-89.34812702L392.91944705 430.69214802a21.269333 21.269333 0 0 1 0.90509668-8.35705887A237.44 237.44 0 0 1 376.23549801 406.40538687C284.59445917 314.76434803 284.59445917 166.17764402 376.23549801 74.53660518S616.46324157-17.10443437 708.10428041 74.53660447s91.64103884 240.22774427 0 331.86878311c-5.65685425 5.65685425-11.53998267 10.96675524-17.589045 15.92970157 0.81458701 2.62478037 1.17662568 5.4607495 0.90509667 8.35705887l-35.1479213 396.79438518c-4.78192699 54.07952663-49.41827872 98.23315919-102.59270867 103.89001344-0.60339755 0.06033954-8.28163462 4.90260749-11.07234962 6.48652597-73.6145295 41.36291827-142.55272709 37.50117197-207.61409296-5.38532524-49.84065765-32.85500948-93.64733695-83.9929719-150.18570932-167.26186575-8.53807821-12.58084385-16.72920387-24.90524341-29.18936793-43.82176472-97.01127938-147.27431453-135.76450199-190.67370104-184.53412762-189.84402861a21.333333 21.333333 0 1 1-0.72407805-42.66022375c41.24223848-0.69390722 79.24121433 22.82352175 119.32191254 67.73140178 28.28427125 31.69346921 46.67281856 57.95635764 101.5669322 141.30067644 12.36965439 18.7656714 20.47026968 30.93922174 28.85749938 43.33904626 100.73726047 148.40568609 175.21163252 206.7391664 266.12859402 175.55858578z m-48.73945622-466.26055466L470.57674218 823.74546669c3.16783838 35.87199794 35.58538494 65.57425446 71.6082321 65.57425375 36.02284786 0 68.425309-29.65700168 71.60823209-65.57425375L646.82923518 450.57410556a235.285333 235.285333 0 0 1-209.31869194-7.1e-7zM406.40538687 376.23549801a192 192 0 1 0 271.52900398-271.52900397 192 192 0 0 0-271.52900398 271.52900397z m114.43439047 146.74634194l42.66022375-7.1e-7 0.01508541 127.99575596-42.69039387 0 0.01508471-127.99575525z"
        fill="#cccccc"
        p-id="20982"></path>
</svg>