<?xml version="1.0" standalone="no"?><!DOCTYPE svg PUBLIC "-//W3C//DTD SVG 1.1//EN" "http://www.w3.org/Graphics/SVG/1.1/DTD/svg11.dtd">
<svg t="1704461185957"
     class="icon"
     viewBox="0 0 1024 1024"
     version="1.1"
     xmlns="http://www.w3.org/2000/svg"
     p-id="31996"
     xmlns:xlink="http://www.w3.org/1999/xlink"
     width="96"
     height="96"
     fill="currentColor">
    <path
        d="M512.1 959.56a48.54 48.54 0 0 1-33.62-13.25l-77.27-73.79a39.2 39.2 0 0 0-26.92-10.59H197.66C124 861.92 64 804.27 64 733.4V231.47C64 160.6 124 103 197.66 103h233.65a19.47 19.47 0 1 1 0 38.94H197.66c-52.23 0-94.71 40.18-94.71 89.58V733.4c0 49.4 42.48 89.58 94.71 89.58h176.62a77.4 77.4 0 0 1 53.81 21.37l77.27 73.77a10 10 0 0 0 13.5 0l77.24-73.76A77.4 77.4 0 0 1 649.91 823h172.3c52.23 0 94.71-40.18 94.71-89.58l3.4-155.76a19.47 19.47 0 1 1 38.94 0V733.4c0 70.87-63.35 128.52-137 128.52H649.91A39.27 39.27 0 0 0 623 872.49l-77.25 73.79a48.59 48.59 0 0 1-33.65 13.28z"
        p-id="31997"
        fill="#cccccc"></path>
</svg>