<?xml version="1.0" standalone="no"?><!DOCTYPE svg PUBLIC "-//W3C//DTD SVG 1.1//EN" "http://www.w3.org/Graphics/SVG/1.1/DTD/svg11.dtd">
<svg t="1704459762867"
     class="icon"
     viewBox="0 0 1091 1024"
     version="1.1"
     xmlns="http://www.w3.org/2000/svg"
     p-id="7563"
     xmlns:xlink="http://www.w3.org/1999/xlink"
     width="102.28125"
     height="96"
     fill="currentColor">
    <path
        d="M58.368 576.512q-24.576 0-41.472-16.896t-16.896-42.496l0-76.8q0-23.552 16.896-40.96t41.472-17.408l750.592 0q8.192 0 16.384 3.072-40.96 5.12-78.336 20.992t-68.096 40.96-53.76 58.368-36.352 71.168l-530.432 0zM573.44 642.048q-1.024 8.192-1.024 15.36l0 14.336q0 46.08 13.312 87.04t36.864 75.776l-564.224 0q-24.576 0-41.472-16.896t-16.896-41.472l0-76.8q0-23.552 16.896-40.448t41.472-16.896l515.072 0zM185.344 317.44q-23.552 0-40.448-16.896t-16.896-41.472l0-70.656q0-24.576 16.896-41.984t40.448-17.408l779.264 0q23.552 0 40.448 17.408t16.896 41.984l0 70.656q0 24.576-16.896 41.472t-40.448 16.896l-779.264 0zM865.28 448.512q46.08 0 87.04 17.92t71.68 48.128 48.64 71.168 17.92 87.04q0 47.104-17.92 88.064t-48.64 71.68-71.68 48.128-87.04 17.408-87.04-17.408-71.68-48.128-48.64-71.68-17.92-88.064q0-46.08 17.92-87.04t48.64-71.168 71.68-48.128 87.04-17.92zM992.256 709.632q10.24 0 16.896-10.752t6.656-25.088-6.656-24.064-16.896-9.728l-96.256 0 0-90.112q0-8.192-8.704-14.336t-24.064-6.144q-16.384 0-24.064 6.144t-7.68 14.336l0 112.64q0 3.072-0.512 5.632t-0.512 5.632q0 14.336 6.656 25.088t16.896 10.752l138.24 0z"
        p-id="7564"
        fill="#cccccc"></path>
</svg>