<?xml version="1.0" standalone="no"?><!DOCTYPE svg PUBLIC "-//W3C//DTD SVG 1.1//EN" "http://www.w3.org/Graphics/SVG/1.1/DTD/svg11.dtd">
<svg t="1704460288079"
     class="icon"
     viewBox="0 0 1024 1024"
     version="1.1"
     xmlns="http://www.w3.org/2000/svg"
     p-id="1472"
     xmlns:xlink="http://www.w3.org/1999/xlink"
     width="96"
     height="96"
     fill="currentColor">
    <path
        d="M814.08 640c-58.368 0-109.568 28.672-141.312 72.704l-204.288-101.376c28.16-39.424 44.544-87.552 44.544-139.776 0-43.008-11.264-82.944-30.72-117.76l245.76-99.84c25.088 43.008 71.68 71.68 124.928 71.68 79.872 0 144.896-65.024 144.896-144.896S932.864 35.84 853.504 35.84s-144.896 65.024-144.896 144.896c0 4.608 0 9.728 0.512 14.336L444.416 302.08C400.384 257.024 338.944 228.864 271.36 228.864 137.728 228.864 29.184 337.408 29.184 471.04c0 133.632 108.544 242.176 242.176 242.176 58.368 0 112.128-20.992 154.112-55.296l221.184 110.08c-4.096 14.848-6.144 30.208-6.144 46.08 0 95.744 78.336 174.08 174.08 174.08s174.08-78.336 174.08-174.08-78.848-174.08-174.592-174.08z m39.424-542.72c46.08 0 83.456 37.376 83.456 83.456s-37.376 83.456-83.456 83.456-83.456-37.376-83.456-83.456S807.424 97.28 853.504 97.28z m-762.88 373.76c0-99.84 80.896-180.736 180.736-180.736 99.84 0 180.736 80.896 180.736 180.736S371.2 651.776 271.36 651.776c-99.84 0-180.736-80.896-180.736-180.736zM814.08 926.72c-61.952 0-112.64-50.688-112.64-112.64s50.688-112.64 112.64-112.64 112.64 50.688 112.64 112.64-50.688 112.64-112.64 112.64z"
        fill="#cccccc"
        p-id="1473"></path>
</svg>