<?xml version="1.0" standalone="no"?><!DOCTYPE svg PUBLIC "-//W3C//DTD SVG 1.1//EN" "http://www.w3.org/Graphics/SVG/1.1/DTD/svg11.dtd">
<svg t="1708605303033"
     class="icon"
     viewBox="0 0 1024 1024"
     version="1.1"
     xmlns="http://www.w3.org/2000/svg"
     p-id="5178"
     xmlns:xlink="http://www.w3.org/1999/xlink"
     width="128"
     height="128"
     fill="currentColor">

    <path
        d="M923.6 338.1c-22.5-53.2-54.7-101-95.7-142s-88.8-73.2-142-95.7C630.8 77.1 572.3 65.3 512 65.3c-60.3 0-118.8 11.8-173.9 35.1-53.2 22.5-101 54.7-142 95.7s-73.2 88.8-95.7 142C77.1 393.2 65.3 451.7 65.3 512c0 60.3 11.8 118.8 35.1 173.9 22.5 53.2 54.7 101 95.7 142s88.8 73.2 142 95.7c55.1 23.3 113.6 35.1 173.9 35.1 60.3 0 118.8-11.8 173.9-35.1 53.2-22.5 101-54.7 142-95.7s73.2-88.8 95.7-142c23.3-55.1 35.1-113.6 35.1-173.9 0-60.3-11.8-118.8-35.1-173.9zM512 918.7c-224.3 0-406.7-182.5-406.7-406.7 0-224.3 182.5-406.7 406.7-406.7 224.3 0 406.7 182.5 406.7 406.7 0 224.3-182.4 406.7-406.7 406.7z"
        fill="#bfbfbf"
        p-id="5179"></path>
    <path
        d="M700 340.6L444.6 596 324 475.4c-7.8-7.8-20.5-7.8-28.3 0s-7.8 20.5 0 28.3l134.8 134.8c3.9 3.9 9 5.9 14.1 5.9s10.2-2 14.1-5.9L728.2 369c7.8-7.8 7.8-20.5 0-28.3s-20.4-7.9-28.2-0.1z"
        fill="#bfbfbf"
        p-id="5180"></path>
</svg>