<?xml version="1.0" standalone="no"?><!DOCTYPE svg PUBLIC "-//W3C//DTD SVG 1.1//EN" "http://www.w3.org/Graphics/SVG/1.1/DTD/svg11.dtd">
<svg t="1704459321703"
     class="icon"
     viewBox="0 0 1024 1024"
     version="1.1"
     xmlns="http://www.w3.org/2000/svg"
     p-id="1222"
     xmlns:xlink="http://www.w3.org/1999/xlink"
     width="96"
     height="96"
     fill="currentColor">
    <path
        d="M946.176 887.808l-178.688-178.688c125.44-154.624 116.224-382.976-27.648-526.848-153.6-153.6-403.968-153.6-557.568 0s-153.6 403.968 0 557.568c76.8 76.8 177.664 115.2 278.528 115.2 88.064 0 176.128-29.184 248.32-88.064l178.688 178.688c8.192 8.192 18.432 11.776 29.184 11.776 10.24 0 20.992-4.096 29.184-11.776 15.872-15.872 15.872-41.472 0-57.856zM240.128 681.472c-121.856-121.856-121.856-320 0-441.856C301.056 179.2 380.928 148.48 460.8 148.48c79.872 0 159.744 30.208 220.672 91.136 121.856 121.856 121.856 320 0 441.856-121.344 121.856-319.488 121.856-441.344 0z"
        p-id="1223"
        fill="#cccccc"></path>
</svg>