<?xml version="1.0" standalone="no"?><!DOCTYPE svg PUBLIC "-//W3C//DTD SVG 1.1//EN" "http://www.w3.org/Graphics/SVG/1.1/DTD/svg11.dtd">
<svg t="1705397988399"
     class="icon"
     viewBox="0 0 1024 1024"
     version="1.1"
     xmlns="http://www.w3.org/2000/svg"
     p-id="5192"
     xmlns:xlink="http://www.w3.org/1999/xlink"
     width="96"
     height="96"
     fill="currentColor">
    <path
        d="M859.737 413.746L522.054 77.001a30.78 30.78 0 0 0-2.71-3.102l-0.017-0.017a30.425 30.425 0 0 0-9.276-6.33l-0.211-0.094a27.17 27.17 0 0 0-0.611-0.256 29.044 29.044 0 0 0-10.616-2.197c-0.22-0.005-0.441-0.005-0.661-0.005-0.173 0.001-0.345 0-0.518 0.004-3.672 0.06-7.312 0.8-10.715 2.219a23.818 23.818 0 0 0-0.817 0.35 30.435 30.435 0 0 0-9.23 6.309l-0.017 0.017a30.669 30.669 0 0 0-2.705 3.095L136.262 413.745c-11.268 11.237-10.972 29.921 0.658 41.52l0.017 0.017c11.619 11.589 30.338 11.885 41.596 0.658L468 167.277V931c0 16.568 13.432 30 30 30s30-13.432 30-30V167.277L817.466 455.94c11.258 11.227 29.976 10.931 41.596-0.657l0.017-0.017c11.63-11.599 11.926-30.283 0.658-41.52z"
        fill="#141414"
        p-id="5193"></path>
</svg>