<?xml version="1.0" standalone="no"?><!DOCTYPE svg PUBLIC "-//W3C//DTD SVG 1.1//EN" "http://www.w3.org/Graphics/SVG/1.1/DTD/svg11.dtd">
<svg t="1705916002684"
     class="icon"
     viewBox="0 0 1024 1024"
     version="1.1"
     xmlns="http://www.w3.org/2000/svg"
     p-id="6117"
     xmlns:xlink="http://www.w3.org/1999/xlink"
     width="96"
     height="96"
     fill="currentColor">
    <path
        d="M305.519192 557.640404c-11.636364 0-23.40202-4.39596-32.323232-13.317172-17.842424-17.842424-17.842424-46.674747 0-64.517171L683.830303 69.30101c17.842424-17.842424 46.674747-17.842424 64.517172 0 17.842424 17.842424 17.842424 46.674747 0 64.517172L337.713131 544.323232c-8.921212 8.921212-20.557576 13.317172-32.193939 13.317172z m0 0"
        fill="#cccccc"
        p-id="6118"></path>
    <path
        d="M715.894949 968.145455c-11.636364 0-23.40202-4.39596-32.323232-13.317172L273.19596 544.323232c-17.842424-17.842424-17.842424-46.674747 0-64.517171 17.842424-17.842424 46.674747-17.842424 64.517171 0l410.505051 410.50505c17.842424 17.842424 17.842424 46.674747 0 64.517172-8.921212 8.921212-20.557576 13.317172-32.323233 13.317172z m0 0"
        fill="#cccccc"
        p-id="6119"></path>
</svg>