<?xml version="1.0" standalone="no"?><!DOCTYPE svg PUBLIC "-//W3C//DTD SVG 1.1//EN" "http://www.w3.org/Graphics/SVG/1.1/DTD/svg11.dtd">
<svg t="1707282633661"
     class="icon"
     viewBox="0 0 1204 1024"
     version="1.1"
     xmlns="http://www.w3.org/2000/svg"
     p-id="22608"
     xmlns:xlink="http://www.w3.org/1999/xlink"
     width="96"
     height="96"
     fill="currentColor">
    <path
        d="M680.702976 524.548501a243.083628 243.083628 0 0 1 229.378616-240.859569 198.963108 198.963108 0 0 1 34.683297 3.726802A475.648058 475.648058 0 0 0 296.241334 49.741979 513.697498 513.697498 0 0 0 42.999167 720.806672a492.298445 492.298445 0 0 0 655.195732 259.553686 440.483883 440.483883 0 0 0 223.487865-206.056053c-6.01097 0-11.360733 1.743181-17.191374 1.743182-122.142911 0.06011-223.006988-126.4107-223.788414-251.498986z m-183.214366 95.454204a104.35044 104.35044 0 1 1 102.18649-104.35044 103.148246 103.148246 0 0 1-102.18649 104.35044z"
        fill="#cccccc"
        p-id="22609"></path>
    <path
        d="M1188.088956 230.491848l-117.875122-55.000376h-7.754152a24.04388 24.04388 0 0 0-5.169434 0 23.382673 23.382673 0 0 0-6.551957 0 20.557517 20.557517 0 0 0-5.409873 1.683072 26.688707 26.688707 0 0 0-4.748667 3.125704 36.727027 36.727027 0 0 0-4.928995 3.847021 30.05485 30.05485 0 0 0-2.825156 4.388008 32.399128 32.399128 0 0 0-3.726801 6.01097 35.224284 35.224284 0 0 0 0 5.049215 38.770757 38.770757 0 0 0 0 5.289653v205.755504a143.000977 143.000977 0 0 0-201.848374 38.229769 150.875348 150.875348 0 0 0 37.388234 206.65715 142.940867 142.940867 0 0 0 201.788263-38.22977 150.634909 150.634909 0 0 0 25.546623-84.15358V254.595837l74.23548 34.502968a31.437373 31.437373 0 0 0 36.06582-26.688707 32.339019 32.339019 0 0 0-13.885341-31.858141z"
        fill="#cccccc"
        p-id="22610"></path>
</svg>