<?xml version="1.0" standalone="no"?><!DOCTYPE svg PUBLIC "-//W3C//DTD SVG 1.1//EN" "http://www.w3.org/Graphics/SVG/1.1/DTD/svg11.dtd">
<svg t="1706361614609"
     class="icon"
     viewBox="0 0 1024 1024"
     version="1.1"
     xmlns="http://www.w3.org/2000/svg"
     p-id="6639"
     xmlns:xlink="http://www.w3.org/1999/xlink"
     width="96"
     height="96"
     fill="currentColor">
    <path
        d="M696.937287 278.703799a15.716647 15.716647 0 0 0 12.231961 18.490173l53.550385 10.880755a15.574415 15.574415 0 0 0 18.419057-12.303076 15.716647 15.716647 0 0 0-12.23196-18.490173l-53.550386-10.880756A15.645531 15.645531 0 0 0 696.937287 278.703799z m-16.498923-78.227655a15.503299 15.503299 0 0 0 9.956247-3.626918l45.940968-38.189319a15.787763 15.787763 0 0 0 2.062365-22.117092 15.574415 15.574415 0 0 0-21.974859-2.133481l-45.940968 38.189319a15.787763 15.787763 0 0 0-1.99125 22.045975 15.574415 15.574415 0 0 0 12.160845 5.689284z m150.837141 694.234878H463.178832l258.15126-94.15765A64.004445 64.004445 0 0 0 759.519411 718.272102l-16.712272-46.43878a10.951872 10.951872 0 1 0-20.552538 7.467185l16.712272 46.43878a42.171817 42.171817 0 0 1-25.103966 53.905966l-290.509063 105.962914A41.745121 41.745121 0 0 1 369.803459 860.504202L209.223418 414.748802a42.242934 42.242934 0 0 1 25.103966-53.905966l290.509063-105.962914a41.745121 41.745121 0 0 1 53.550385 25.246198l65.568998 182.697132a10.951872 10.951872 0 1 0 20.623655-7.680534l-65.568998-182.554899a63.577748 63.577748 0 0 0-81.570109-38.402667L226.860199 340.148066a64.004445 64.004445 0 0 0-38.189319 82.067921L349.179804 867.615807a64.004445 64.004445 0 0 0 47.007709 40.891728 7.680533 7.680533 0 0 0 4.195847 1.280089h431.034377a7.751649 7.751649 0 0 0 0-15.574415z m-217.47288 31.646642H393.058407a6.258212 6.258212 0 0 0 0 12.587541h220.459754a6.258212 6.258212 0 0 0 0-12.587541z m-37.051462-768.053337a15.645531 15.645531 0 0 0 15.218835 12.160844 15.645531 15.645531 0 0 0 15.218835-19.272449l-12.160845-53.763734a15.645531 15.645531 0 1 0-30.437669 7.111605zM407.068269 662.161539a4.693659 4.693659 0 0 0 2.70241-6.044864 4.693659 4.693659 0 0 0-6.044865-2.773526l-27.521911 10.311827a4.693659 4.693659 0 0 0 1.635669 9.102854 4.622543 4.622543 0 0 0 1.635669 0l27.521912-10.311827zM404.721439 789.388152a4.693659 4.693659 0 0 0 6.044864 2.773526l32.215571-12.089729a4.693659 4.693659 0 0 0 2.773526-6.044864 4.693659 4.693659 0 0 0-6.044865-2.773526l-32.21557 12.089729a4.693659 4.693659 0 0 0-2.773526 6.044864z m69.551497-152.188346a4.693659 4.693659 0 0 0 2.773526-6.044865 4.693659 4.693659 0 0 0-6.044865-2.773526l-43.878602 16.498924a4.693659 4.693659 0 0 0 1.635669 9.102854 4.693659 4.693659 0 0 0 1.635669 0l43.878603-16.498923z m89.10841-33.709008a4.622543 4.622543 0 0 0 1.635669 0l43.878603-16.498924a4.693659 4.693659 0 0 0 2.773526-6.044864 4.693659 4.693659 0 0 0-6.044865-2.773526L561.816793 594.032363a4.693659 4.693659 0 0 0 1.635669 9.102855z m-32.997847 143.156608a18306.906869 18306.906869 0 0 1 3.271338-0.568928l42.385166-16.21446a3.342454 3.342454 0 0 0 5.40482 2.986874l33.211195-20.268074a7.111605 7.111605 0 0 0 2.560178-2.773526L758.523786 448.031113c5.191472-9.671783 3.911383-20.481422-2.844642-24.179457l-16.996735-9.245086c-7.111605-3.698035-16.498924 1.137857-21.690396 10.738523L575.613306 687.478853a7.111605 7.111605 0 0 0-0.924508 3.626918l0.924508 29.015349h-1.280088l-43.878603 16.498923a4.693659 4.693659 0 0 0 0 9.458435z m-67.346899 25.246198a3614.188763 3614.188763 0 0 0 3.271338-0.568929l43.878603-16.498923a4.693659 4.693659 0 0 0 2.773526-6.044864 4.693659 4.693659 0 0 0-6.044865-2.773526l-43.878602 16.498923a4.693659 4.693659 0 0 0 0 9.458435zM541.619835 611.598028a4.693659 4.693659 0 0 0 2.773526-6.044865 4.693659 4.693659 0 0 0-6.044865-2.773526l-43.878602 16.498924a4.693659 4.693659 0 0 0 1.635669 9.102854 4.693659 4.693659 0 0 0 1.635669 0L541.619835 611.598028z"
        fill="#cccccc"
        p-id="6640"></path>
</svg>