<?xml version="1.0" standalone="no"?><!DOCTYPE svg PUBLIC "-//W3C//DTD SVG 1.1//EN" "http://www.w3.org/Graphics/SVG/1.1/DTD/svg11.dtd">
<svg t="1706361655331"
     class="icon"
     viewBox="0 0 1550 1024"
     version="1.1"
     xmlns="http://www.w3.org/2000/svg"
     p-id="8106"
     xmlns:xlink="http://www.w3.org/1999/xlink"
     width="145.3125"
     height="96"
     fill="currentColor">
    <path
        d="M1126.37015371 31.05045872c-19.88410785 0-35.44526336-15.56115551-35.44526337-35.44526338s15.56115551-35.44526336 35.44526337-35.44526336 35.44526336 15.56115551 35.44526336 35.44526336-15.56115551 35.44526336-35.44526336 35.44526338z m0-55.32937124c-11.23820319 0-20.74869831 9.51049514-20.74869833 20.74869833s9.51049514 20.74869831 20.74869833 20.74869834 20.74869831-9.51049514 20.7486983-20.74869834c0-12.10279365-9.51049514-20.74869831-20.7486983-20.74869833zM161.57114728 222.9718677c-22.47640637 0-41.49592373-19.01804449-41.49592374-41.49592375s19.01951739-41.49739663 41.49592374-41.49739663 41.49739663 19.01951739 41.49739663 41.49739663-19.01951739 41.49592373-41.49739663 41.49592375z m0-68.29528244c-14.69656506 0-26.79935869 12.10279365-26.79935869 26.79935869s12.10279365 26.79935869 26.79935869 26.79935871 26.80083161-12.10279365 26.8008316-26.79935871-12.10279365-26.79935869-26.8008316-26.79935869z m1323.57311953 439.17366209c-22.47787926 0-41.49739663-19.01951739-41.49739663-41.49739663 0-22.47640637 19.01951739-41.49739663 41.49739663-41.49739665s41.49592373 19.01951739 41.49592373 41.49739665-19.01951739 41.49592373-41.49592373 41.49592374z m0-68.29822823c-14.69656506 0-26.80083161 12.10426655-26.80083159 26.8008316s12.10426655 26.79935869 26.80083159 26.79935868 26.79935869-12.10279365 26.79935869-26.79935868-12.10279365-26.80083161-26.79935869-26.8008316zM133.04260764 399.33359407H63.88126186c-5.1860699 0-8.64590467-4.32295234-8.64590468-8.64590469v-0.86311754c0-5.18754281 4.32295234-8.64590467 8.64590468-8.64590469h69.16134578c5.18754281 0 8.64590467 4.32295234 8.64590468 8.64590469v0.86311754c0 4.32295234-4.32295234 8.64590467-8.64590468 8.64590469z"
        p-id="8107"
        fill="#cccccc"></path>
    <path
        d="M107.10783943 355.24389892v69.15987291c0 5.18754281-4.32295234 8.64590467-8.64590469 8.64590466h-0.86459046c-5.1860699 0-8.64590467-4.32295234-8.64590466-8.64590466V355.24537183c0-5.18754281 4.32295234-8.64590467 8.64590466-8.64590469h0.86459046c5.18754281 0 8.64590467 4.32295234 8.64590469 8.64590469z m404.59298919-363.9616559h-43.22657759c-2.59229851 0-5.18754281-2.59229851-5.18754279-5.18606991v-0.86459046c0-2.5937714 2.5937714-5.18754281 5.18754279-5.18754281h43.22657759c2.59229851 0 5.1860699 2.59229851 5.1860699 5.18754281v0.86459046c0 2.59229851-2.59229851 5.1860699-5.1860699 5.18606991z"
        p-id="8108"
        fill="#cccccc"></path>
    <path
        d="M496.13820022-35.51711568v43.22510467c0 2.5937714-2.59229851 5.18754281-5.18606992 5.18754281h-0.86459048c-2.5937714 0-5.18754281-2.59229851-5.18754279-5.18754281v-43.22510467c0-2.5937714 2.5937714-5.18754281 5.18754279-5.18754281h0.86459048c2.59229851-0.86459046 5.1860699 1.72918094 5.18606992 5.18754281z m647.52228993 870.56600997h-27.66394915c-4.32295234 0-7.78131421-3.45836187-7.78131421-7.77984131s3.45836187-7.78131421 7.78131421-7.78131421h27.66394915c4.32295234 0 7.77984131 3.45836187 7.77984131 7.78131421s-4.32147945 7.77984131-7.77984131 7.77984131z m-66.5675744 0H492.68131122c-4.32295234 0-7.78131421-3.45836187-7.78131419-7.77984131s3.45836187-7.78131421 7.78131419-7.78131421H1077.09144285c4.32295234 0 7.77984131 3.45836187 7.77984132 7.78131421s-3.45688898 7.77984131-7.77984132 7.77984131z m-618.99227742 0h-25.07165066c-4.32147945 0-7.77984131-3.45836187-7.7798413-7.77984131s3.45836187-7.78131421 7.7798413-7.78131421h25.07165066c4.32147945 0 7.77984131 3.45836187 7.77984129 7.78131421s-3.45836187 7.77984131-7.77984129 7.77984131z m1007.15952064 74.34888859h-52.73559982c-4.32295234 0-7.78131421-3.45836187-7.78131422-7.7813142s3.45836187-7.77984131 7.78131422-7.7798413h52.73559982a7.74743758 7.74743758 0 0 1 7.77984129 7.7798413c-0.86459046 4.32295234-3.45688898 7.78131421-7.77984129 7.7813142z m-111.52333292 0H647.42827592c-4.32147945 0-7.77984131-3.45836187-7.77984131-7.7813142s3.45836187-7.77984131 7.77984131-7.7798413h706.30855013c4.32295234 0 7.78131421 3.45688898 7.78131422 7.7798413s-3.45836187 7.78131421-7.78131422 7.7813142z m-740.88775013 0h-62.24462206c-4.32295234 0-7.78131421-3.45836187-7.78131422-7.7813142s3.45836187-7.77984131 7.7798413-7.7798413h62.24462207c4.32295234 0 7.78131421 3.45688898 7.78131421 7.7798413s-3.45836187 7.78131421-7.7798413 7.7813142z m-95.9621774 0H226.41101364c-4.32295234 0-7.78131421-3.45836187-7.78131421-7.7813142s3.45836187-7.77984131 7.78131421-7.7798413h290.47588488c4.32295234 0 7.78131421 3.45688898 7.78131421 7.7798413s-3.45836187 7.78131421-7.78131421 7.7813142z m-330.2441006 0H139.09474091c-4.32295234 0-7.78131421-3.45836187-7.78131419-7.7813142s3.45836187-7.77984131 7.78131419-7.7798413h47.54805701a7.74743758 7.74743758 0 0 1 7.77984132 7.7798413c-0.86459046 4.32295234-4.32147945 7.78131421-7.77984132 7.7813142z m925.8953812 123.62465366h-19.01951738c-4.32295234 0-7.78131421-3.45836187-7.78131421-7.77984132s3.45836187-7.78131421 7.78131421-7.78131419h19.01951738c4.32295234 0 7.77984131 3.45836187 7.77984132 7.78131419s-3.45688898 7.77984131-7.77984132 7.77984132z m85.58709178 0H1139.33606492c-4.32295234 0-7.77984131-3.45836187-7.77984131-7.77984132s3.45688898-7.78131421 7.77984131-7.78131419h58.78773309c4.32147945 0 7.77984131 3.45836187 7.77984131 7.78131419s-3.45836187 7.77984131-7.77984131 7.77984132z m-135.7289202 0H912.83398303c-4.32295234 0-7.78131421-3.45836187-7.78131421-7.77984132s3.45836187-7.78131421 7.78131421-7.78131419h149.56089478c4.32295234 0 7.77984131 3.45836187 7.77984131 7.78131419s-3.45688898 7.77984131-7.77984131 7.77984132z m-222.18060244 0H623.22268862c-4.32295234 0-7.78131421-3.45836187-7.78131421-7.77984132s3.45836187-7.78131421 7.78131421-7.78131419h216.99305964c4.32295234 0 7.78131421 3.45836187 7.78131421 7.78131419s-3.45836187 7.77984131-7.78131421 7.77984132z m-244.65700879 0h-50.14182844c-4.32295234 0-7.78131421-3.45836187-7.78131421-7.77984132s3.45836187-7.78131421 7.78131421-7.78131419h50.14182844c4.32147945 0 7.77984131 3.45836187 7.77984131 7.78131419s-4.32295234 7.77984131-7.77984131 7.77984132z"
        p-id="8109"
        fill="#cccccc"></path>
    <path
        d="M914.56463687 1030.42866514a7.74743758 7.74743758 0 0 1-7.78131421-7.7798413c0-16.42574598-13.83197458-30.25772055-30.25772056-30.25772057s-30.25772055 13.83050169-30.25772057 30.25772057c0 4.32295234-3.45836187 7.77984131-7.7813142 7.7798413s-7.77984131-3.45688898-7.77984131-7.7798413c0-25.07165065 19.88410785-44.9542856 44.95281271-44.95428562 25.07165065 0 44.9557585 19.88410785 44.95575851 44.95281272 0.86459046 4.32442523-1.72918094 7.78131421-6.05066037 7.7813142z m415.83119237-830.79779426c-2.5937714 0-4.32295234-1.72918094-4.32295234-4.32295234v-34.58067289c0-2.59229851 1.72918094-4.32295234 4.32295234-4.32295235h0.86459046c2.59229851 0 4.32295234 1.72918094 4.32295234 4.32295235v34.58067289c-0.86459046 2.5937714-2.5937714 4.32295234-5.1875428 4.32295234z m-8.64590468 3.45836186c-1.72918094 1.72918094-4.32147945 1.72918094-6.05066038 0l-24.20706019-24.20706019c-1.72918094-1.72918094-1.72918094-4.32295234 0-6.05213327s4.32295234-1.72770803 6.05213327 0l24.2055873 24.2070602c1.72918094 1.72918094 1.72918094 4.32295234 0 6.05213326z m-4.32147944 8.64590469c0 2.59229851-1.72918094 4.32147945-4.32295234 4.32147942H1278.52481989c-2.59229851 0-4.32295234-1.72918094-4.32295235-4.32295232v-0.86459049c0-2.59229851 1.72918094-4.32295234 4.32295235-4.32295232h34.58067289c2.59229851 1.72918094 4.32295234 3.45836187 4.32295234 5.18754281z m3.45688896 9.50902223c1.72918094 1.72770803 1.72918094 4.32147945 0 6.05066037l-24.20558728 24.20706019c-1.72918094 1.72918094-4.32295234 1.72918094-6.05213326 0s-1.72918094-4.32295234 0-6.05213327l24.20706017-24.20558729c2.59229851-1.72918094 5.1860699-1.72918094 6.05066037 0z m9.51049516 3.45688898c2.59229851 0 4.32295234 1.72918094 4.32295233 4.32295235v34.58067287c0 2.59229851-1.72918094 4.32295234-4.32295233 4.32295236h-0.86459047c-2.5937714 0-4.32295234-1.72918094-4.32295235-4.32295236v-34.58067287c0.86459046-2.59229851 2.5937714-4.32295234 5.18754282-4.32295235z m8.64590467-3.45688898c1.72770803-1.72918094 4.32147945-1.72918094 6.05066037 0l24.20706019 24.20558729c1.72770803 1.72918094 1.72770803 4.32295234 0 6.05213327s-4.32295234 1.72918094-6.05360618 0l-24.20558729-24.20706019c-0.86459046-1.72918094-0.86459046-4.32295234 0-6.05066037z m4.32147944-8.64590468c0-2.59229851 1.72918094-4.32295234 4.32295234-4.32295232h34.58067289c2.59229851 0 4.32147945 1.72918094 4.32147945 4.32295232v0.86459047c0 2.59229851-1.72770803 4.32295234-4.32147945 4.32295235h-34.58067289c-2.5937714-1.72918094-4.32295234-3.45836187-4.32295234-5.18754282z m-3.45836187-9.50902224c-1.72918094-1.72918094-1.72918094-4.32295234 0-6.05213326l24.20706018-24.2070602c1.72918094-1.72770803 4.32295234-1.72770803 6.05066038 0s1.72918094 4.32295234 0 6.05360618l-24.20558729 24.20558728c-1.72918094 1.72918094-4.32295234 1.72918094-6.05213327 0zM688.06108208 749.46180251h-243.79389123c-13.83050169 0-25.06870487-13.83197458-25.06870485-31.12231104V298.18534677c0-17.29033645 11.23820319-31.12231104 25.06870485-31.12231104h269.73013236l-73.48429814 204.02567554 160.79909795 153.01925666-113.25104094 125.35383458z m-243.79389123-463.37924937c-1.72770803 0-6.05066037 4.32147945-6.05066038 12.10279363v420.1541447c0 6.91672374 3.45836187 12.10279365 6.05213328 12.10279364h234.28339609l95.09611403-105.46972672-155.61155516-148.69777721L686.33190114 286.94714358l-242.06323739-0.86459044z"
        p-id="8110"
        fill="#cccccc"></path>
    <path
        d="M510.35901956 475.43670286l0.76148768-19.87379759 126.9975875 4.85761393-0.76001478 19.86643307z m4.12411126 69.32631024l0.76148768-19.86643308 185.7396608 7.09641715-0.7585419 19.87527046z m29.7672459 81.51453191l0.75854189-19.86790597 243.6215623 9.32049144-0.76001479 19.86643308zM712.07519278 441.71914752l246.83836907-32.66148827 2.60997329 19.71177892-246.84573358 32.66885276z m63.6468199 80.96366849l173.05801867-23.42937065 2.66299754 19.71030603-173.05801867 23.41906037z m75.21200617 92.50086973l173.05949156-23.42789776 2.66152465 19.71177893-173.05801866 23.41906036z m-104.01745041-273.32547364l283.29109389-40.43101929 2.81028725 19.68379387-283.30140419 40.43101929z m-318.28123216-5.32452222l242.92930077-2.29035465 0.19147659 19.88410786-242.92930075 2.28888174z"
        p-id="8111"
        fill="#cccccc"></path>
    <path
        d="M783.15719611 739.08818979l62.24462205-125.35530748-149.55942187-149.56089478 73.48282523-196.24436131 234.28339609-32.85149197c13.83197458-1.72918094 26.80083161 10.37361271 29.394603 27.66394915l57.92166973 415.83119237c0.86459046 7.78131421 0 15.56115551-3.45836188 21.61328879-3.45688898 6.91672374-10.37361271 12.10279365-17.29033644 12.96738411l-287.01899591 25.93624112z m-64.83692058-280.10374507l151.28860283 151.29007571-53.59871739 106.33579011 251.57225964-23.34246972s1.72918094-0.86311758 2.59377141-2.59229851c1.72918094-2.5937714 1.72918094-6.05213327 1.72918093-9.51049513l-57.92166971-415.83119237c-0.86459046-6.91672374-5.18754281-11.23820319-6.91672374-11.23820318l-223.04519293 31.12231102-65.70298393 173.76648207z"
        p-id="8112"
        fill="#cccccc"></path>
</svg>