<?xml version="1.0" standalone="no"?><!DOCTYPE svg PUBLIC "-//W3C//DTD SVG 1.1//EN" "http://www.w3.org/Graphics/SVG/1.1/DTD/svg11.dtd">
<svg t="1706361693134"
     class="icon"
     viewBox="0 0 1024 1024"
     version="1.1"
     xmlns="http://www.w3.org/2000/svg"
     p-id="9998"
     xmlns:xlink="http://www.w3.org/1999/xlink"
     width="96"
     height="96"
     fill="currentColor">
    <path
        d="M403.045 1013.016h246.61v7.086H396.667l-0.354-3.189a19.814 19.814 0 0 0-18.425-18.424c-5.315-0.355-10.276 1.417-14.173 4.96s-6.378 8.15-6.378 13.464l-0.354 3.19H2.657v-7.087h347.948c1.063-5.67 3.897-10.984 8.504-14.882 5.315-4.606 12.047-7.086 19.133-6.732 12.402 0.709 22.677 9.921 24.803 21.614z m520.858 0v7.086h95.668v-7.086h-95.668z m-231.02 7.086h197.36v-7.086h-197.36v7.086z m77.597-586.054c-3.897 0-7.086-2.834-9.212-5.314-65.196-67.677-152.36-105.944-246.256-108.07-93.542-1.771-182.123 32.953-249.8 97.794a60.392 60.392 0 0 0-6.732 6.732l-3.543 3.544c-7.44 8.149-13.464 2.48-16.653-0.355l-28.7-26.574c-2.127-1.417-3.898-3.543-4.253-6.024-0.708-2.48-0.354-5.315 1.063-7.44 0.355-1.063 1.418-1.772 2.126-2.835 76.889-80.078 180.352-125.077 291.61-127.203 110.904-2.126 216.139 38.976 295.862 115.864a88.453 88.453 0 0 1 8.15 8.15l3.897 3.898c2.834 2.834 4.252 5.669 3.897 8.503 0 3.544-2.48 6.024-3.897 7.441l-29.41 27.283c-2.48 2.835-4.96 4.252-8.149 4.606z m-262.555-120.47h7.441c95.668 1.771 184.958 41.102 251.217 110.195 2.48 2.48 3.897 3.189 4.252 2.835 0.708 0 1.771-0.709 2.834-2.126l0.355-0.355 29.409-27.283c1.417-1.417 1.771-2.48 1.771-2.834 0-0.709-0.708-1.772-1.771-3.19l-3.898-3.897c-2.48-2.834-5.315-5.315-8.15-7.795-78.66-75.826-181.768-116.219-290.9-114.093-109.487 2.126-211.178 46.771-287.004 125.431-0.354 0.355-1.063 1.063-1.063 1.418-0.354 0.708-0.709 1.417-0.354 2.126 0.354 0.708 0.708 1.417 1.417 1.771l0.709 0.355 29.054 26.928c3.544 3.19 3.898 3.19 6.732 0.709l3.544-3.543c2.126-2.126 4.606-4.606 7.086-6.732 66.613-64.488 154.486-99.92 247.32-99.92z"
        p-id="9999"
        fill="#cccccc"></path>
    <path
        d="M347.77 526.173c-2.126 0-4.252-1.063-7.086-3.189l-32.244-29.763c-3.189-3.19-6.378-7.795-1.063-13.819 52.44-54.212 122.951-84.684 198.068-86.101 75.117-1.063 146.336 26.929 200.194 79.369l5.315 5.315c4.96 5.315 4.96 9.212 0.354 14.527l-31.89 29.763c-6.731 5.67-11.338 1.063-14.172-1.771-85.038-85.038-223.58-85.038-308.618 0l-1.771 1.771c-1.772 1.772-4.252 3.898-7.087 3.898z m162.281-125.785H505.8c-73.345 1.063-142.084 30.826-193.107 83.62-1.063 1.063-1.063 1.772-1.063 1.772s0 0.709 1.772 2.126l32.243 29.763c1.772 1.418 2.48 1.418 2.48 1.418 0.355 0 0.71-0.355 2.48-2.126l1.772-1.772c87.873-87.873 230.666-87.873 318.539 0 2.834 2.835 2.834 2.835 4.606 1.417l31.535-29.409c1.063-1.417 1.417-1.771 1.417-1.771s0-0.709-1.771-2.48l-5.315-5.316c-52.086-49.96-119.762-77.242-191.336-77.242z"
        p-id="10000"
        fill="#cccccc"></path>
    <path
        d="M440.25 611.211c-2.481 0-4.961-1.063-7.442-3.543L403.4 580.385c-1.771-1.772-3.543-3.898-3.897-7.441 0-2.835 1.063-5.67 4.252-8.858 59.526-57.755 153.068-57.755 212.95-0.355 2.834 2.48 4.251 4.961 4.605 7.796 0 2.834-1.063 5.669-3.897 8.503l-27.638 25.512c-2.834 2.834-5.669 4.252-8.858 4.252-2.834 0-5.315-1.418-8.15-4.252-35.432-31.535-88.935-30.826-123.659 1.417-3.897 2.835-6.378 4.252-8.858 4.252z m69.801-83.266c-36.495 0-72.99 13.818-101.691 41.456-2.835 2.834-2.48 3.897-0.354 6.023l29.409 27.283c2.48 2.48 2.834 2.48 6.023-0.354 37.559-34.724 94.96-35.433 133.226-1.417 2.835 2.834 3.898 3.189 7.087 0l27.637-25.512c1.063-1.063 1.772-2.48 1.772-3.189s-0.709-1.771-2.126-2.834c-27.992-27.992-64.487-41.456-100.983-41.456z m1.063 190.272c-24.094 0-43.582-19.488-43.582-43.582s19.488-43.582 43.582-43.582 43.582 19.488 43.582 43.582-19.488 43.582-43.582 43.582z m0-80.077c-20.196 0-36.495 16.299-36.495 36.495s16.299 36.496 36.495 36.496 36.496-16.3 36.496-36.496-16.3-36.495-36.496-36.495z m200.548 80.077h-0.354c-1.772 0-3.189-0.708-4.252-2.126l-38.621-38.621-38.622 38.621c-2.48 2.48-6.732 2.48-9.212 0-2.48-2.48-2.48-6.732 0-9.212l38.621-38.622-38.267-38.267c-2.48-2.48-2.48-6.732 0-9.212 2.48-2.48 6.024-2.48 8.858-0.354l0.354 0.354 38.268 38.267 38.267-38.267c2.48-2.48 6.732-2.48 9.212 0 1.063 1.063 1.772 2.834 1.772 4.606s-0.709 3.543-1.772 4.606l-38.267 37.913 38.622 38.622c1.417 1.417 2.125 3.188 2.125 5.314 0 1.772-0.708 3.19-2.125 4.252-1.418 1.418-3.19 2.126-4.607 2.126z m-86.455-92.479z m85.747-1.063z"
        p-id="10001"
        fill="#cccccc"></path>
</svg>